<svg width="512" height="110" viewBox="0 0 512 110" fill="none" xmlns="http://www.w3.org/2000/svg">
<path d="M141.864 25.27C141.865 25.3336 141.884 25.3955 141.92 25.448C141.956 25.5004 142.007 25.5411 142.066 25.5647C142.125 25.5883 142.189 25.5938 142.251 25.5805C142.313 25.5672 142.37 25.5357 142.414 25.49C145.721 21.8634 149.841 19.9467 154.774 19.74C164.201 19.3467 170.258 23.4367 172.944 32.01C175.614 40.57 175.194 53.32 169.734 60.3C163.404 68.38 148.854 68.83 142.154 60.55C142.095 60.4821 142.015 60.4359 141.927 60.4192C141.838 60.4024 141.747 60.4159 141.667 60.4575C141.587 60.4991 141.524 60.5664 141.487 60.6486C141.45 60.7307 141.442 60.8228 141.464 60.91C141.938 62.5367 141.711 63.9967 140.784 65.29C140.691 65.4176 140.569 65.5218 140.428 65.5946C140.288 65.6674 140.133 65.7069 139.974 65.71L135.944 65.78C135.682 65.784 135.421 65.7357 135.177 65.638C134.934 65.5403 134.712 65.3951 134.525 65.2108C134.338 65.0266 134.189 64.8069 134.088 64.5647C133.987 64.3225 133.934 64.0626 133.934 63.8L133.924 6.51003C133.924 4.8567 134.751 4.0267 136.404 4.02003L139.374 4.00004C141.034 3.99337 141.864 4.82004 141.864 6.48004V25.27ZM145.284 30.28C139.844 36.44 140.214 53.59 147.934 58.18C154.554 62.13 163.584 59.03 165.574 51.21C167.144 45.08 167.324 35.06 162.994 30.1C158.594 25.06 149.494 25.51 145.284 30.28Z" fill="white"/>
<path d="M215.864 25.24L215.854 6.53999C215.854 4.85999 216.694 4.01666 218.374 4.00999H221.304C222.911 4.00332 223.714 4.80332 223.714 6.40998V63.48C223.714 65 222.954 65.76 221.434 65.76H218.264C217.696 65.76 217.151 65.5349 216.748 65.1338C216.345 64.7328 216.117 64.1885 216.114 63.62L216.104 60.77C216.107 60.6957 216.085 60.6226 216.043 60.5614C216.001 60.5001 215.94 60.4539 215.87 60.4294C215.8 60.4049 215.724 60.4033 215.652 60.425C215.581 60.4467 215.519 60.4905 215.474 60.55C212.921 63.7367 209.891 65.6 206.384 66.14C193.851 68.0667 186.331 63.02 183.824 51C181.824 41.39 183.024 25.78 194.054 21.34C201.734 18.24 208.864 19.6 215.444 25.42C215.724 25.6667 215.864 25.6067 215.864 25.24ZM204.924 59.68C215.074 58.82 216.654 46.95 215.664 38.78C214.751 31.3133 211.094 27.2733 204.694 26.66C197.964 26.02 192.854 29.52 191.644 36.25C189.964 45.65 190.924 60.87 204.924 59.68Z" fill="white"/>
<path d="M298.024 31.47C298.451 34.1233 298.964 34.14 299.564 31.52C300.664 26.64 301.621 21.7266 302.434 16.78C302.502 16.3638 302.655 15.9662 302.884 15.6119C303.113 15.2576 303.413 14.9541 303.765 14.7205C304.117 14.4869 304.513 14.3281 304.929 14.254C305.346 14.18 305.773 14.1922 306.184 14.29L307.074 14.51C307.706 14.6603 308.256 15.0477 308.611 15.5926C308.966 16.1375 309.1 16.7985 308.984 17.44L307.014 28.29C306.948 28.65 307.098 28.8133 307.464 28.78C309.764 28.5666 311.284 29.52 312.024 31.64C312.138 31.9466 312.354 32.0866 312.674 32.06C320.654 31.36 314.044 46.08 312.844 49.35C312.034 51.54 312.304 53.4 312.234 55.69C312.228 56.07 312.034 56.26 311.654 56.26H295.124C295.033 56.2609 294.942 56.2409 294.86 56.2014C294.777 56.162 294.704 56.1041 294.646 56.0321C294.589 55.9601 294.548 55.8758 294.527 55.7854C294.506 55.695 294.505 55.6009 294.524 55.51C295.184 52.41 294.704 50.89 292.264 48.8C290.644 47.4133 289.071 46.0233 287.544 44.63C283.854 41.28 286.464 35.94 291.464 36.57C291.884 36.6233 292.061 36.44 291.994 36.02L289.094 17.58C288.981 16.8636 289.153 16.1312 289.574 15.5404C289.995 14.9495 290.63 14.5472 291.344 14.42L291.894 14.33C294.054 13.9367 295.311 14.8266 295.664 17L298.024 31.47Z" fill="white"/>
<path d="M92.7944 46.39C93.0344 53.1 96.7944 59.69 104.154 60.24C108.728 60.5867 112.604 58.6833 115.784 54.53C115.965 54.2973 116.22 54.1347 116.504 54.07C118.731 53.5167 120.934 53.57 123.114 54.23C123.27 54.2745 123.404 54.373 123.492 54.5072C123.581 54.6414 123.617 54.8022 123.594 54.96C122.434 63.92 109.064 67.11 102.124 66.32C88.3944 64.77 83.7944 52.23 84.8344 40.17C85.8444 28.54 92.2544 19.89 104.644 19.79C119.644 19.66 124.974 30.93 124.894 44.05C124.892 44.5044 124.708 44.9394 124.384 45.2598C124.06 45.5802 123.621 45.76 123.164 45.76H93.4044C92.9844 45.76 92.7811 45.97 92.7944 46.39ZM93.1344 39.72L116.594 39.8C116.685 39.8 116.771 39.7642 116.835 39.7004C116.899 39.6366 116.934 39.5502 116.934 39.46V38.41C116.94 36.788 116.638 35.1809 116.046 33.6804C115.454 32.1799 114.583 30.8154 113.484 29.6649C112.384 28.5143 111.077 27.6003 109.638 26.9749C108.199 26.3495 106.655 26.025 105.094 26.02H104.714C101.564 26.0098 98.5382 27.301 96.3028 29.6095C94.0674 31.9181 92.8054 35.0549 92.7944 38.33V39.38C92.7944 39.4702 92.8302 39.5566 92.894 39.6204C92.9577 39.6842 93.0442 39.72 93.1344 39.72Z" fill="white"/>
<path d="M240.184 46.31C240.614 53.17 244.404 59.91 251.644 60.29C256.384 60.5367 260.338 58.5133 263.504 54.22C263.592 54.1015 263.705 54.0046 263.835 53.937C263.965 53.8694 264.108 53.8328 264.254 53.83L269.684 53.8C269.913 53.7987 270.139 53.8508 270.344 53.9522C270.549 54.0536 270.728 54.2014 270.866 54.384C271.004 54.5665 271.097 54.7788 271.138 55.0037C271.18 55.2287 271.168 55.4603 271.104 55.68C268.674 63.95 257.224 67.07 249.894 66.35C246.161 65.99 242.958 64.83 240.284 62.87C230.284 55.57 229.934 35.91 236.894 26.78C240.274 22.3533 245.108 20.0266 251.394 19.8C266.454 19.27 272.254 30.17 272.364 43.35C272.378 44.9566 271.578 45.76 269.964 45.76H240.704C240.331 45.76 240.158 45.9433 240.184 46.31ZM240.824 39.87L263.764 39.79C263.929 39.79 264.087 39.7247 264.203 39.6084C264.319 39.4921 264.384 39.3344 264.384 39.17V38.36C264.373 35.0796 263.111 31.9377 260.876 29.6254C258.641 27.3131 255.615 26.0199 252.464 26.03H252.044C250.484 26.035 248.94 26.36 247.501 26.9864C246.061 27.6127 244.755 28.5283 243.655 29.6807C242.556 30.8331 241.685 32.1998 241.093 33.7027C240.501 35.2057 240.199 36.8154 240.204 38.44V39.25C240.204 39.4144 240.27 39.5721 240.386 39.6884C240.502 39.8047 240.66 39.87 240.824 39.87Z" fill="white"/>
<path d="M338.584 46.33C338.704 59.77 353.234 65.49 361.494 54.58C361.701 54.3 361.978 54.1234 362.324 54.05C364.311 53.61 366.318 53.5934 368.344 54C368.563 54.0443 368.769 54.1376 368.947 54.2729C369.125 54.4083 369.271 54.5823 369.372 54.782C369.474 54.9817 369.53 55.2021 369.535 55.4268C369.541 55.6515 369.496 55.8747 369.404 56.08C366.354 62.84 359.414 65.77 352.574 66.39C336.394 67.86 329.674 54.84 330.644 40.53C331.364 29.74 336.874 20.86 348.634 19.85C358.461 19.0034 365.171 22.87 368.764 31.45C370.344 35.21 370.634 39.63 370.664 43.79C370.666 44.0483 370.616 44.3042 370.518 44.5432C370.42 44.7821 370.276 44.9994 370.094 45.1824C369.912 45.3655 369.695 45.5108 369.457 45.6099C369.218 45.709 368.963 45.76 368.704 45.76H339.154C338.774 45.76 338.584 45.95 338.584 46.33ZM338.914 39.73L362.394 39.81C362.485 39.81 362.571 39.7742 362.635 39.7104C362.699 39.6467 362.734 39.5602 362.734 39.47V38.49C362.74 36.8615 362.439 35.2478 361.849 33.7412C361.259 32.2346 360.391 30.8646 359.296 29.7094C358.2 28.5542 356.897 27.6365 355.463 27.0086C354.028 26.3807 352.489 26.055 350.934 26.05H350.454C347.315 26.04 344.299 27.3365 342.071 29.6543C339.843 31.9722 338.586 35.1217 338.574 38.41V39.39C338.574 39.4802 338.61 39.5667 338.674 39.6305C338.738 39.6942 338.824 39.73 338.914 39.73Z" fill="white"/>
<path d="M429.654 26.58C422.704 28.24 422.164 36.13 429.264 37.97C434.714 39.39 443.154 40.85 447.364 44C451.864 47.37 453.344 54.22 450.454 58.98C446.244 65.93 436.104 67.15 428.664 65.98C423.184 65.1133 418.904 62.4033 415.824 57.85C414.518 55.9233 414.998 54.6967 417.264 54.17L417.784 54.05C418.805 53.813 419.871 53.8662 420.862 54.2038C421.854 54.5414 422.731 55.1497 423.394 55.96C426.274 59.4667 430.311 60.83 435.504 60.05C439.454 59.46 443.604 58.13 443.874 53.73C444.444 44.23 421.004 48 417.194 37.12C414.564 29.6 419.494 22.66 426.774 20.7C434.954 18.5 446.034 20.35 450.094 28.93C450.224 29.206 450.282 29.5103 450.263 29.8147C450.243 30.1191 450.147 30.4136 449.984 30.671C449.82 30.9284 449.594 31.1402 449.327 31.2869C449.059 31.4336 448.759 31.5103 448.454 31.51H444.414C444.269 31.5101 444.124 31.4748 443.992 31.4071C443.86 31.3394 443.744 31.2411 443.654 31.12C440.334 26.6467 435.668 25.1334 429.654 26.58Z" fill="white"/>
<path d="M469.674 46.27C469.741 49.3967 470.544 52.2067 472.084 54.7C477.154 62.92 487.814 61.39 492.974 54.2C493.065 54.076 493.183 53.9752 493.32 53.9056C493.458 53.8361 493.61 53.7999 493.764 53.8L499.204 53.83C499.465 53.831 499.722 53.8986 499.949 54.0265C500.176 54.1544 500.367 54.3383 500.503 54.5607C500.64 54.7832 500.717 55.0368 500.728 55.2974C500.738 55.5581 500.682 55.8171 500.564 56.05C499.258 58.6433 497.721 60.56 495.954 61.8C483.654 70.4 466.224 67.52 462.564 51.21C459.324 36.75 464.134 19.48 482.144 19.83C496.604 20.1 502.084 31.14 501.694 44.03C501.681 44.4934 501.488 44.9334 501.156 45.2564C500.823 45.5795 500.378 45.7602 499.914 45.76H470.174C469.834 45.76 469.668 45.93 469.674 46.27ZM470.214 39.86L493.214 39.82C493.376 39.82 493.531 39.7557 493.646 39.6413C493.76 39.5269 493.824 39.3718 493.824 39.21V38.44C493.819 35.1409 492.559 31.979 490.322 29.6498C488.084 27.3206 485.053 26.0149 481.894 26.02H481.494C479.93 26.0225 478.382 26.3468 476.938 26.9743C475.494 27.6018 474.182 28.5203 473.078 29.6774C471.974 30.8344 471.099 32.2073 470.503 33.7177C469.907 35.228 469.602 36.8463 469.604 38.48V39.25C469.604 39.4118 469.669 39.5669 469.783 39.6813C469.897 39.7957 470.053 39.86 470.214 39.86Z" fill="white"/>
<path d="M42.8144 32.8C42.7964 32.7494 42.7632 32.7056 42.7193 32.6747C42.6755 32.6437 42.6231 32.6271 42.5694 32.6271C42.5157 32.6271 42.4633 32.6437 42.4194 32.6747C42.3756 32.7056 42.3424 32.7494 42.3244 32.8C39.1844 42.4867 36.0377 52.2234 32.8844 62.01C31.6244 65.91 29.6644 66.34 25.9044 65.63C24.7177 65.4034 23.9877 64.85 23.7144 63.97C19.5477 50.45 15.3677 36.8067 11.1744 23.04C10.661 21.3667 11.281 20.5234 13.0344 20.51L15.5344 20.49C17.2077 20.4834 18.2844 21.2834 18.7644 22.89L28.1044 54.26C28.1195 54.312 28.1511 54.3576 28.1944 54.39C28.2377 54.4225 28.2903 54.44 28.3444 54.44C28.3985 54.44 28.4511 54.4225 28.4944 54.39C28.5377 54.3576 28.5692 54.312 28.5844 54.26L38.9144 21.75C38.9708 21.5748 39.0648 21.4147 39.1893 21.2815C39.3139 21.1483 39.4659 21.0453 39.6344 20.98C41.6144 20.2 45.7744 19.85 46.6444 22.63C49.931 33.1967 53.2111 43.7034 56.4844 54.15C56.5045 54.2124 56.5439 54.2668 56.5969 54.3054C56.6499 54.344 56.7138 54.3648 56.7794 54.3648C56.8449 54.3648 56.9088 54.344 56.9618 54.3054C57.0148 54.2668 57.0542 54.2124 57.0744 54.15L66.3844 22.86C66.8511 21.28 67.9111 20.4934 69.5644 20.5L72.0644 20.51C73.8444 20.5167 74.4744 21.37 73.9544 23.07C69.8344 36.57 65.6977 50.1067 61.5444 63.68C60.9577 65.6067 59.5344 66.3634 57.2744 65.95C54.6144 65.47 53.4444 65.68 52.5844 63.01C49.3044 52.8967 46.0477 42.8267 42.8144 32.8Z" fill="white"/>
<path d="M387.924 25.49C392.231 20.9833 397.588 19.4567 403.994 20.91C404.354 20.99 404.578 21.2067 404.664 21.56C405.144 23.48 405.071 25.3667 404.444 27.22C404.378 27.4141 404.25 27.5806 404.079 27.6929C403.909 27.8052 403.707 27.857 403.504 27.84C399.214 27.48 393.904 27.42 390.664 30.35C388.718 32.0967 387.738 34.3134 387.724 37C387.671 45.7 387.661 54.37 387.694 63.01C387.708 64.8433 386.794 65.76 384.954 65.76H382.434C380.614 65.76 379.704 64.8533 379.704 63.04V22.29C379.704 22.0476 379.753 21.8077 379.848 21.5846C379.943 21.3616 380.081 21.1599 380.256 20.9918C380.431 20.8237 380.638 20.6926 380.864 20.6064C381.091 20.5202 381.332 20.4806 381.574 20.49L386.484 20.66C386.694 20.6647 386.894 20.7478 387.045 20.8925C387.195 21.0372 387.284 21.2329 387.294 21.44L387.484 25.32C387.504 25.72 387.651 25.7767 387.924 25.49Z" fill="white"/>
<path d="M262.644 105.25C261.42 105.252 260.208 104.964 259.076 104.403C257.944 103.842 256.915 103.018 256.048 101.978C255.181 100.939 254.492 99.7042 254.021 98.345C253.551 96.9857 253.307 95.5284 253.304 94.0563C253.302 92.5842 253.54 91.1261 254.006 89.7652C254.472 88.4043 255.157 87.1673 256.02 86.1249C256.884 85.0824 257.91 84.2549 259.04 83.6896C260.169 83.1242 261.381 82.8322 262.605 82.83C263.829 82.8279 265.041 83.1157 266.173 83.6771C267.305 84.2385 268.334 85.0624 269.201 86.1018C270.068 87.1413 270.757 88.3758 271.227 89.7351C271.698 91.0943 271.942 92.5516 271.944 94.0237C271.947 95.4958 271.708 96.954 271.242 98.3148C270.776 99.6757 270.092 100.913 269.228 101.955C268.365 102.998 267.339 103.825 266.209 104.39C265.079 104.956 263.868 105.248 262.644 105.25ZM262.619 102.88C263.467 102.882 264.308 102.654 265.092 102.209C265.877 101.765 266.59 101.113 267.191 100.29C267.793 99.4674 268.27 98.4905 268.597 97.4149C268.923 96.3393 269.092 95.1862 269.094 94.0213C269.096 92.8565 268.931 91.7028 268.609 90.6261C268.286 89.5493 267.812 88.5707 267.213 87.746C266.615 86.9213 265.904 86.2667 265.121 85.8195C264.338 85.3724 263.498 85.1415 262.65 85.14C261.802 85.1385 260.961 85.3665 260.177 85.8109C259.392 86.2553 258.679 86.9074 258.077 87.73C257.476 88.5526 256.999 89.5296 256.672 90.6052C256.346 91.6808 256.176 92.8339 256.174 93.9987C256.172 95.1635 256.337 96.3173 256.66 97.394C256.983 98.4707 257.457 99.4494 258.056 100.274C258.654 101.099 259.365 101.753 260.148 102.201C260.931 102.648 261.771 102.879 262.619 102.88Z" fill="white"/>
<path d="M293.354 85.59C282.384 82.67 280.654 105.02 293.744 102.37C294.054 102.306 294.331 102.132 294.524 101.88C295.238 100.967 296.094 100.77 297.094 101.29C297.468 101.483 297.548 101.76 297.334 102.12C296.428 103.687 295.038 104.613 293.164 104.9C283.884 106.33 280.014 97.18 282.444 89.88C284.564 83.53 290.974 80.67 296.724 85.12C297.058 85.3734 297.081 85.6534 296.794 85.96L296.034 86.77C295.774 87.05 295.508 87.06 295.234 86.8C294.548 86.14 293.921 85.7367 293.354 85.59Z" fill="white"/>
<path d="M308.667 105.259C307.447 105.247 306.242 104.944 305.121 104.368C304 103.793 302.984 102.955 302.133 101.905C301.281 100.854 300.61 99.6097 300.157 98.2436C299.704 96.8775 299.479 95.4161 299.495 93.9427C299.51 92.4694 299.766 91.013 300.247 89.6566C300.728 88.3003 301.425 87.0707 302.299 86.0379C303.172 85.0051 304.205 84.1894 305.338 83.6374C306.471 83.0854 307.682 82.8078 308.902 82.8206C310.122 82.8334 311.327 83.1362 312.448 83.7119C313.569 84.2875 314.584 85.1246 315.436 86.1755C316.288 87.2264 316.959 88.4703 317.412 89.8364C317.864 91.2025 318.089 92.664 318.074 94.1373C318.058 95.6107 317.803 97.0671 317.322 98.4234C316.841 99.7797 316.143 101.009 315.27 102.042C314.396 103.075 313.364 103.891 312.231 104.443C311.098 104.995 309.887 105.272 308.667 105.259ZM308.704 102.86C310.412 102.86 312.05 101.926 313.258 100.262C314.466 98.5986 315.144 96.3425 315.144 93.99C315.144 91.6375 314.466 89.3814 313.258 87.718C312.05 86.0545 310.412 85.12 308.704 85.12C306.996 85.12 305.358 86.0545 304.151 87.718C302.943 89.3814 302.264 91.6375 302.264 93.99C302.264 96.3425 302.943 98.5986 304.151 100.262C305.358 101.926 306.996 102.86 308.704 102.86Z" fill="white"/>
<path d="M157.104 85.12C157.104 84.9046 157.147 84.6914 157.229 84.4924C157.312 84.2934 157.432 84.1126 157.585 83.9603C157.737 83.808 157.918 83.6872 158.117 83.6048C158.316 83.5224 158.529 83.48 158.744 83.48H163.504C165.971 83.48 168.336 84.4914 170.08 86.2917C171.825 88.0921 172.804 90.5339 172.804 93.08V95.3C172.804 97.8461 171.825 100.288 170.08 102.088C168.336 103.889 165.971 104.9 163.504 104.9H158.744C158.309 104.9 157.892 104.727 157.585 104.42C157.277 104.112 157.104 103.695 157.104 103.26V85.12ZM160.324 86.15L160.214 101.93C160.214 102.109 160.285 102.28 160.41 102.407C160.535 102.535 160.706 102.607 160.884 102.61L162.614 102.62C164.569 102.633 166.449 101.853 167.84 100.452C169.232 99.0516 170.021 97.1442 170.034 95.15L170.054 93.05C170.061 92.0623 169.877 91.0831 169.513 90.1681C169.149 89.2532 168.611 88.4204 167.932 87.7175C167.252 87.0145 166.443 86.4551 165.551 86.0712C164.66 85.6873 163.702 85.4864 162.734 85.48L161.004 85.47C160.824 85.47 160.651 85.5416 160.524 85.6691C160.396 85.7967 160.324 85.9696 160.324 86.15Z" fill="white"/>
<path d="M179.044 98.94L177.294 104.14C177.048 104.86 176.558 105.13 175.824 104.95L175.324 104.83C175.203 104.8 175.088 104.746 174.989 104.67C174.889 104.594 174.806 104.498 174.746 104.389C174.686 104.28 174.649 104.159 174.639 104.035C174.628 103.912 174.644 103.787 174.684 103.67L181.164 84.76C181.303 84.3497 181.566 83.9937 181.918 83.742C182.27 83.4902 182.693 83.3555 183.126 83.3566C183.56 83.3577 183.983 83.4946 184.336 83.7481C184.689 84.0016 184.954 84.359 185.094 84.77L191.554 103.71C191.594 103.83 191.607 103.957 191.592 104.083C191.577 104.208 191.534 104.329 191.467 104.435C191.4 104.541 191.31 104.631 191.204 104.698C191.098 104.764 190.979 104.806 190.854 104.82L190.444 104.87C190.076 104.913 189.705 104.83 189.391 104.633C189.078 104.436 188.843 104.139 188.724 103.79L187.084 99.01C186.971 98.6767 186.741 98.51 186.394 98.51H179.654C179.348 98.51 179.144 98.6533 179.044 98.94ZM180.084 95.38C180.062 95.4518 180.058 95.5278 180.071 95.6018C180.083 95.6758 180.113 95.7457 180.158 95.806C180.203 95.8663 180.261 95.9153 180.328 95.949C180.395 95.9827 180.469 96.0001 180.544 96L185.594 96.02C185.67 96.0217 185.746 96.0054 185.814 95.9724C185.882 95.9394 185.942 95.8906 185.988 95.8301C186.034 95.7696 186.065 95.699 186.078 95.6243C186.091 95.5495 186.087 95.4726 186.064 95.4L183.564 86.91C183.536 86.8106 183.476 86.723 183.394 86.6603C183.312 86.5976 183.212 86.5632 183.108 86.562C183.005 86.5609 182.904 86.5932 182.82 86.6541C182.737 86.715 182.675 86.8012 182.644 86.9L180.084 95.38Z" fill="white"/>
<path d="M204.904 96.21L209.114 103.53C209.554 104.297 209.331 104.72 208.444 104.8L208.054 104.84C207.685 104.873 207.314 104.798 206.986 104.624C206.658 104.45 206.386 104.185 206.204 103.86L201.924 96.18C201.778 95.9134 201.551 95.7767 201.244 95.77L198.424 95.7201C197.904 95.7134 197.644 95.97 197.644 96.49V103.95C197.645 104.097 197.613 104.242 197.552 104.375C197.49 104.509 197.401 104.627 197.289 104.723C197.177 104.819 197.045 104.89 196.903 104.931C196.76 104.972 196.611 104.982 196.464 104.96L196.174 104.91C195.321 104.777 194.894 104.277 194.894 103.41V84.52C194.897 84.317 194.973 84.1221 195.107 83.9714C195.242 83.8206 195.425 83.7242 195.624 83.7C199.634 83.17 208.064 82.3301 208.964 88.0301C209.351 90.4634 208.728 92.5067 207.094 94.16C206.624 94.64 205.634 94.93 205.034 95.43C204.774 95.6567 204.731 95.9167 204.904 96.21ZM197.664 86.77L197.604 92.27C197.602 92.5999 197.729 92.9174 197.96 93.1534C198.19 93.3894 198.505 93.5248 198.834 93.5301L202.024 93.57C202.603 93.5774 203.177 93.4836 203.714 93.2941C204.25 93.1045 204.739 92.8229 205.153 92.4653C205.566 92.1077 205.895 91.6812 206.122 91.2101C206.349 90.7391 206.469 90.2327 206.474 89.7201V89.52C206.486 88.4867 206.034 87.4903 205.219 86.7497C204.403 86.009 203.29 85.5848 202.124 85.57L198.934 85.5301C198.769 85.5274 198.606 85.5575 198.452 85.6185C198.299 85.6795 198.159 85.7702 198.041 85.8855C197.923 86.0008 197.829 86.1383 197.764 86.2901C197.7 86.4419 197.666 86.605 197.664 86.77Z" fill="white"/>
<path d="M217.194 102.34L226.394 102.35C226.45 102.35 226.504 102.361 226.555 102.382C226.606 102.403 226.652 102.434 226.691 102.473C226.73 102.512 226.761 102.558 226.782 102.609C226.804 102.66 226.814 102.715 226.814 102.77V104.41C226.814 104.465 226.804 104.52 226.782 104.571C226.761 104.622 226.73 104.668 226.691 104.707C226.652 104.746 226.606 104.777 226.555 104.798C226.504 104.819 226.45 104.83 226.394 104.83L214.504 104.82C214.393 104.82 214.286 104.776 214.207 104.697C214.129 104.618 214.084 104.511 214.084 104.4L214.114 83.94C214.114 83.8286 214.159 83.7218 214.237 83.643C214.316 83.5643 214.423 83.52 214.534 83.52L225.964 83.56C226.021 83.56 226.078 83.5714 226.13 83.5938C226.182 83.6161 226.229 83.6489 226.269 83.69C226.308 83.7312 226.338 83.7799 226.358 83.8331C226.378 83.8864 226.387 83.9432 226.384 84L226.344 85.12C226.339 85.2279 226.293 85.3297 226.215 85.4042C226.136 85.4786 226.032 85.5201 225.924 85.52L217.224 85.5C217.115 85.5 217.009 85.5429 216.931 85.6195C216.852 85.6961 216.807 85.8004 216.804 85.91L216.724 92.07C216.724 92.1814 216.769 92.2882 216.847 92.367C216.926 92.4458 217.033 92.49 217.144 92.49L224.454 92.4C224.51 92.4 224.566 92.4112 224.617 92.4329C224.669 92.4547 224.716 92.4865 224.755 92.5266C224.794 92.5666 224.825 92.6141 224.845 92.6662C224.866 92.7183 224.876 92.774 224.874 92.83L224.814 94.4C224.809 94.5079 224.763 94.6097 224.685 94.6842C224.606 94.7586 224.502 94.8001 224.394 94.8L217.184 94.82C217.073 94.82 216.966 94.8643 216.887 94.943C216.809 95.0218 216.764 95.1286 216.764 95.24L216.774 101.92C216.774 102.031 216.819 102.138 216.897 102.217C216.976 102.296 217.083 102.34 217.194 102.34Z" fill="white"/>
<path d="M245.024 85.96L244.964 104.68C244.964 104.74 244.95 104.799 244.925 104.853C244.899 104.907 244.863 104.955 244.817 104.994C244.772 105.033 244.719 105.061 244.661 105.078C244.604 105.094 244.543 105.099 244.484 105.09L242.734 104.82C242.635 104.803 242.546 104.752 242.482 104.675C242.417 104.598 242.383 104.5 242.384 104.4L242.374 85.95C242.374 85.8949 242.364 85.8402 242.342 85.7893C242.321 85.7383 242.29 85.692 242.251 85.653C242.212 85.614 242.166 85.5831 242.115 85.562C242.064 85.5409 242.01 85.53 241.954 85.53L236.344 85.49C236.236 85.4901 236.132 85.4487 236.054 85.3742C235.976 85.2997 235.93 85.1979 235.924 85.09L235.874 83.98C235.872 83.9232 235.881 83.8664 235.9 83.8132C235.92 83.7599 235.951 83.7112 235.99 83.67C236.029 83.6289 236.077 83.5961 236.129 83.5738C236.181 83.5514 236.238 83.54 236.294 83.54L251.204 83.53C251.26 83.53 251.316 83.5412 251.367 83.5629C251.419 83.5847 251.466 83.6165 251.505 83.6566C251.544 83.6966 251.575 83.7441 251.595 83.7962C251.616 83.8483 251.626 83.904 251.624 83.96L251.594 85.08C251.592 85.1897 251.546 85.2939 251.468 85.3706C251.389 85.4472 251.284 85.4901 251.174 85.49L245.444 85.54C245.333 85.54 245.226 85.5843 245.147 85.663C245.069 85.7418 245.024 85.8486 245.024 85.96Z" fill="white"/>
<path d="M322.624 84.38C322.623 84.2684 322.644 84.1576 322.685 84.0539C322.727 83.9503 322.788 83.8559 322.866 83.776C322.944 83.6961 323.037 83.6324 323.14 83.5885C323.242 83.5446 323.353 83.5213 323.464 83.52L328.774 83.51C331.191 83.502 333.513 84.4539 335.228 86.1564C336.944 87.859 337.914 90.173 337.924 92.59L337.944 95.71C337.95 96.9085 337.719 98.0963 337.265 99.2054C336.81 100.315 336.142 101.323 335.298 102.174C334.454 103.025 333.45 103.701 332.345 104.163C331.239 104.626 330.053 104.866 328.854 104.87L323.544 104.88C323.433 104.881 323.322 104.861 323.218 104.819C323.115 104.778 323.02 104.716 322.94 104.638C322.861 104.56 322.797 104.467 322.753 104.365C322.709 104.262 322.686 104.152 322.684 104.04L322.624 84.38ZM325.454 86.44L325.234 101.64C325.233 101.771 325.258 101.902 325.307 102.023C325.356 102.145 325.428 102.256 325.52 102.35C325.612 102.444 325.722 102.519 325.842 102.57C325.963 102.622 326.093 102.649 326.224 102.65L327.814 102.68C328.788 102.694 329.755 102.511 330.66 102.14C331.565 101.769 332.39 101.218 333.089 100.519C333.787 99.8193 334.345 98.9852 334.73 98.064C335.116 97.1428 335.321 96.1526 335.334 95.15L335.354 93.21C335.382 91.1875 334.628 89.2372 333.26 87.7877C331.891 86.3382 330.019 85.5082 328.054 85.48L326.464 85.45C326.333 85.4487 326.203 85.4732 326.081 85.5223C325.959 85.5713 325.848 85.6439 325.754 85.7358C325.661 85.8277 325.586 85.9372 325.534 86.0581C325.483 86.1789 325.456 86.3087 325.454 86.44Z" fill="white"/>
<path d="M345.434 95.24L345.404 101.91C345.404 102.021 345.449 102.128 345.527 102.207C345.606 102.286 345.713 102.33 345.824 102.33L355.044 102.36C355.1 102.36 355.156 102.371 355.207 102.393C355.259 102.415 355.306 102.446 355.345 102.487C355.384 102.527 355.415 102.574 355.435 102.626C355.456 102.678 355.466 102.734 355.464 102.79L355.414 104.42C355.412 104.53 355.366 104.634 355.288 104.711C355.209 104.787 355.104 104.83 354.994 104.83L343.164 104.81C343.053 104.81 342.946 104.766 342.867 104.687C342.789 104.608 342.744 104.501 342.744 104.39V83.93C342.744 83.8186 342.789 83.7118 342.867 83.633C342.946 83.5543 343.053 83.51 343.164 83.51L354.624 83.55C354.731 83.5497 354.833 83.5898 354.911 83.6622C354.989 83.7346 355.037 83.8339 355.044 83.94L355.134 85.05C355.139 85.1076 355.131 85.1655 355.111 85.22C355.092 85.2744 355.062 85.3244 355.022 85.3666C354.983 85.4088 354.935 85.4425 354.882 85.4654C354.829 85.4884 354.772 85.5002 354.714 85.5L345.874 85.54C345.765 85.54 345.659 85.5829 345.581 85.6595C345.502 85.7361 345.457 85.8404 345.454 85.95L345.384 91.97C345.384 92.0797 345.427 92.185 345.504 92.2635C345.58 92.342 345.685 92.3874 345.794 92.39L353.234 92.47C353.295 92.4706 353.355 92.4844 353.41 92.5103C353.465 92.5363 353.513 92.5739 353.552 92.6205C353.591 92.667 353.62 92.7215 353.636 92.7801C353.652 92.8388 353.655 92.9001 353.644 92.96L353.394 94.45C353.378 94.5472 353.328 94.6355 353.253 94.6995C353.178 94.7634 353.083 94.799 352.984 94.8L345.854 94.82C345.743 94.82 345.636 94.8643 345.557 94.943C345.479 95.0218 345.434 95.1286 345.434 95.24Z" fill="white"/>
<path d="M148.854 92.73H24.8744C24.7253 92.73 24.6044 92.8509 24.6044 93V95.2C24.6044 95.3491 24.7253 95.47 24.8744 95.47H148.854C149.003 95.47 149.124 95.3491 149.124 95.2V93C149.124 92.8509 149.003 92.73 148.854 92.73Z" fill="white"/>
<path d="M487.824 92.73H363.844C363.695 92.73 363.574 92.8509 363.574 93V95.2C363.574 95.3491 363.695 95.47 363.844 95.47H487.824C487.973 95.47 488.094 95.3491 488.094 95.2V93C488.094 92.8509 487.973 92.73 487.824 92.73Z" fill="white"/>
</svg>
