<svg width="634" height="390" viewBox="0 0 634 390" fill="none" xmlns="http://www.w3.org/2000/svg">
<rect width="634" height="390" fill="#1E1E1E"/>
<path d="M201.71 155.01C201.71 155.074 201.73 155.135 201.766 155.188C201.802 155.24 201.852 155.281 201.911 155.305C201.97 155.328 202.035 155.334 202.097 155.32C202.159 155.307 202.216 155.276 202.26 155.23C205.567 151.603 209.687 149.687 214.62 149.48C224.047 149.087 230.103 153.177 232.79 161.75C235.46 170.31 235.04 183.06 229.58 190.04C223.25 198.12 208.7 198.57 202 190.29C201.941 190.222 201.861 190.176 201.772 190.159C201.684 190.142 201.593 190.156 201.513 190.197C201.433 190.239 201.37 190.306 201.333 190.389C201.296 190.471 201.288 190.563 201.31 190.65C201.783 192.277 201.557 193.737 200.63 195.03C200.536 195.158 200.415 195.262 200.274 195.335C200.134 195.407 199.978 195.447 199.82 195.45L195.79 195.52C195.527 195.524 195.267 195.476 195.023 195.378C194.779 195.28 194.558 195.135 194.37 194.951C194.183 194.767 194.035 194.547 193.934 194.305C193.832 194.063 193.78 193.803 193.78 193.54L193.77 136.25C193.77 134.597 194.597 133.767 196.25 133.76L199.22 133.74C200.88 133.733 201.71 134.56 201.71 136.22V155.01ZM205.13 160.02C199.69 166.18 200.06 183.33 207.78 187.92C214.4 191.87 223.43 188.77 225.42 180.95C226.99 174.82 227.17 164.8 222.84 159.84C218.44 154.8 209.34 155.25 205.13 160.02Z" fill="white"/>
<path d="M275.71 154.98L275.7 136.28C275.7 134.6 276.54 133.757 278.22 133.75H281.15C282.757 133.743 283.56 134.543 283.56 136.15V193.22C283.56 194.74 282.8 195.5 281.28 195.5H278.11C277.542 195.5 276.996 195.275 276.593 194.874C276.19 194.473 275.963 193.928 275.96 193.36L275.95 190.51C275.952 190.436 275.931 190.363 275.888 190.301C275.846 190.24 275.786 190.194 275.716 190.169C275.645 190.145 275.569 190.143 275.498 190.165C275.427 190.187 275.365 190.23 275.32 190.29C272.767 193.477 269.737 195.34 266.23 195.88C253.697 197.807 246.177 192.76 243.67 180.74C241.67 171.13 242.87 155.52 253.9 151.08C261.58 147.98 268.71 149.34 275.29 155.16C275.57 155.407 275.71 155.347 275.71 154.98ZM264.77 189.42C274.92 188.56 276.5 176.69 275.51 168.52C274.597 161.053 270.94 157.013 264.54 156.4C257.81 155.76 252.7 159.26 251.49 165.99C249.81 175.39 250.77 190.61 264.77 189.42Z" fill="white"/>
<path d="M357.87 161.21C358.297 163.863 358.81 163.88 359.41 161.26C360.51 156.38 361.467 151.467 362.28 146.52C362.348 146.104 362.501 145.706 362.73 145.352C362.959 144.998 363.259 144.694 363.61 144.461C363.962 144.227 364.359 144.068 364.775 143.994C365.191 143.92 365.618 143.932 366.03 144.03L366.92 144.25C367.552 144.4 368.101 144.788 368.457 145.333C368.812 145.877 368.945 146.539 368.83 147.18L366.86 158.03C366.793 158.39 366.943 158.553 367.31 158.52C369.61 158.307 371.13 159.26 371.87 161.38C371.983 161.687 372.2 161.827 372.52 161.8C380.5 161.1 373.89 175.82 372.69 179.09C371.88 181.28 372.15 183.14 372.08 185.43C372.073 185.81 371.88 186 371.5 186H354.97C354.878 186.001 354.788 185.981 354.705 185.941C354.623 185.902 354.55 185.844 354.492 185.772C354.434 185.7 354.394 185.616 354.372 185.525C354.351 185.435 354.35 185.341 354.37 185.25C355.03 182.15 354.55 180.63 352.11 178.54C350.49 177.153 348.917 175.763 347.39 174.37C343.7 171.02 346.31 165.68 351.31 166.31C351.73 166.363 351.907 166.18 351.84 165.76L348.94 147.32C348.827 146.604 348.999 145.871 349.419 145.28C349.84 144.689 350.476 144.287 351.19 144.16L351.74 144.07C353.9 143.677 355.157 144.567 355.51 146.74L357.87 161.21Z" fill="white"/>
<path d="M152.64 176.13C152.88 182.84 156.64 189.43 164 189.98C168.573 190.327 172.45 188.423 175.63 184.27C175.811 184.037 176.065 183.875 176.35 183.81C178.577 183.257 180.78 183.31 182.96 183.97C183.116 184.015 183.25 184.113 183.338 184.247C183.426 184.381 183.462 184.542 183.44 184.7C182.28 193.66 168.91 196.85 161.97 196.06C148.24 194.51 143.64 181.97 144.68 169.91C145.69 158.28 152.1 149.63 164.49 149.53C179.49 149.4 184.82 160.67 184.74 173.79C184.737 174.244 184.554 174.679 184.23 175C183.906 175.32 183.467 175.5 183.01 175.5H153.25C152.83 175.5 152.627 175.71 152.64 176.13ZM152.98 169.46L176.44 169.54C176.53 169.54 176.617 169.504 176.68 169.44C176.744 169.377 176.78 169.29 176.78 169.2V168.15C176.785 166.528 176.484 164.921 175.891 163.42C175.299 161.92 174.429 160.555 173.329 159.405C172.23 158.254 170.923 157.34 169.484 156.715C168.044 156.089 166.5 155.765 164.94 155.76H164.56C161.41 155.75 158.384 157.041 156.148 159.35C153.913 161.658 152.651 164.795 152.64 168.07V169.12C152.64 169.21 152.676 169.297 152.74 169.36C152.803 169.424 152.89 169.46 152.98 169.46Z" fill="white"/>
<path d="M300.03 176.05C300.46 182.91 304.25 189.65 311.49 190.03C316.23 190.277 320.183 188.253 323.35 183.96C323.437 183.841 323.55 183.745 323.68 183.677C323.81 183.609 323.954 183.573 324.1 183.57L329.53 183.54C329.759 183.539 329.985 183.591 330.19 183.692C330.395 183.794 330.573 183.941 330.711 184.124C330.849 184.307 330.943 184.519 330.984 184.744C331.025 184.969 331.014 185.2 330.95 185.42C328.52 193.69 317.07 196.81 309.74 196.09C306.007 195.73 302.803 194.57 300.13 192.61C290.13 185.31 289.78 165.65 296.74 156.52C300.12 152.093 304.953 149.767 311.24 149.54C326.3 149.01 332.1 159.91 332.21 173.09C332.223 174.697 331.423 175.5 329.81 175.5H300.55C300.177 175.5 300.003 175.683 300.03 176.05ZM300.67 169.61L323.61 169.53C323.774 169.53 323.932 169.465 324.048 169.348C324.165 169.232 324.23 169.074 324.23 168.91V168.1C324.219 164.82 322.957 161.678 320.722 159.365C318.486 157.053 315.46 155.76 312.31 155.77H311.89C310.33 155.775 308.786 156.1 307.346 156.726C305.907 157.353 304.6 158.268 303.501 159.421C302.401 160.573 301.531 161.94 300.938 163.443C300.346 164.946 300.044 166.555 300.05 168.18V168.99C300.05 169.154 300.115 169.312 300.232 169.428C300.348 169.545 300.506 169.61 300.67 169.61Z" fill="white"/>
<path d="M398.43 176.07C398.55 189.51 413.08 195.23 421.34 184.32C421.547 184.04 421.823 183.863 422.17 183.79C424.157 183.35 426.163 183.333 428.19 183.74C428.409 183.784 428.615 183.878 428.793 184.013C428.971 184.148 429.116 184.322 429.218 184.522C429.32 184.722 429.376 184.942 429.381 185.167C429.387 185.391 429.342 185.615 429.25 185.82C426.2 192.58 419.26 195.51 412.42 196.13C396.24 197.6 389.52 184.58 390.49 170.27C391.21 159.48 396.72 150.6 408.48 149.59C418.307 148.743 425.017 152.61 428.61 161.19C430.19 164.95 430.48 169.37 430.51 173.53C430.511 173.788 430.462 174.044 430.364 174.283C430.266 174.522 430.122 174.739 429.939 174.922C429.757 175.105 429.541 175.251 429.302 175.35C429.064 175.449 428.808 175.5 428.55 175.5H399C398.62 175.5 398.43 175.69 398.43 176.07ZM398.76 169.47L422.24 169.55C422.33 169.55 422.417 169.514 422.48 169.45C422.544 169.387 422.58 169.3 422.58 169.21V168.23C422.585 166.601 422.285 164.988 421.695 163.481C421.105 161.975 420.237 160.605 419.141 159.449C418.045 158.294 416.743 157.376 415.308 156.749C413.874 156.121 412.335 155.795 410.78 155.79H410.3C407.16 155.78 404.145 157.076 401.917 159.394C399.689 161.712 398.431 164.862 398.42 168.15V169.13C398.42 169.22 398.456 169.307 398.52 169.37C398.583 169.434 398.67 169.47 398.76 169.47Z" fill="white"/>
<path d="M489.5 156.32C482.55 157.98 482.01 165.87 489.11 167.71C494.56 169.13 503 170.59 507.21 173.74C511.71 177.11 513.19 183.96 510.3 188.72C506.09 195.67 495.95 196.89 488.51 195.72C483.03 194.853 478.75 192.143 475.67 187.59C474.363 185.663 474.843 184.437 477.11 183.91L477.63 183.79C478.65 183.553 479.716 183.606 480.708 183.944C481.699 184.281 482.576 184.89 483.24 185.7C486.12 189.207 490.157 190.57 495.35 189.79C499.3 189.2 503.45 187.87 503.72 183.47C504.29 173.97 480.85 177.74 477.04 166.86C474.41 159.34 479.34 152.4 486.62 150.44C494.8 148.24 505.88 150.09 509.94 158.67C510.07 158.946 510.128 159.25 510.108 159.555C510.089 159.859 509.993 160.154 509.829 160.411C509.666 160.668 509.44 160.88 509.172 161.027C508.905 161.174 508.605 161.25 508.3 161.25H504.26C504.114 161.25 503.969 161.215 503.838 161.147C503.706 161.079 503.59 160.981 503.5 160.86C500.18 156.387 495.513 154.873 489.5 156.32Z" fill="white"/>
<path d="M529.52 176.01C529.587 179.137 530.39 181.947 531.93 184.44C537 192.66 547.66 191.13 552.82 183.94C552.91 183.816 553.029 183.715 553.166 183.646C553.303 183.576 553.455 183.54 553.61 183.54L559.05 183.57C559.311 183.571 559.567 183.639 559.795 183.766C560.022 183.894 560.213 184.078 560.349 184.301C560.485 184.523 560.562 184.777 560.573 185.037C560.584 185.298 560.528 185.557 560.41 185.79C559.103 188.383 557.567 190.3 555.8 191.54C543.5 200.14 526.07 197.26 522.41 180.95C519.17 166.49 523.98 149.22 541.99 149.57C556.45 149.84 561.93 160.88 561.54 173.77C561.527 174.233 561.334 174.673 561.001 174.996C560.669 175.32 560.224 175.5 559.76 175.5H530.02C529.68 175.5 529.513 175.67 529.52 176.01ZM530.06 169.6L553.06 169.56C553.222 169.56 553.377 169.496 553.491 169.381C553.606 169.267 553.67 169.112 553.67 168.95V168.18C553.664 164.881 552.404 161.719 550.167 159.39C547.93 157.061 544.899 155.755 541.74 155.76H541.34C539.776 155.762 538.228 156.087 536.784 156.714C535.339 157.342 534.028 158.26 532.924 159.417C531.82 160.574 530.945 161.947 530.349 163.458C529.753 164.968 529.447 166.586 529.45 168.22V168.99C529.45 169.152 529.514 169.307 529.629 169.421C529.743 169.536 529.898 169.6 530.06 169.6Z" fill="white"/>
<path d="M102.66 162.54C102.642 162.489 102.609 162.446 102.565 162.415C102.521 162.384 102.469 162.367 102.415 162.367C102.361 162.367 102.309 162.384 102.265 162.415C102.221 162.446 102.188 162.489 102.17 162.54C99.03 172.227 95.8833 181.963 92.73 191.75C91.47 195.65 89.51 196.08 85.75 195.37C84.5633 195.143 83.8333 194.59 83.56 193.71C79.3933 180.19 75.2133 166.547 71.02 152.78C70.5067 151.107 71.1267 150.263 72.88 150.25L75.38 150.23C77.0533 150.223 78.13 151.023 78.61 152.63L87.95 184C87.9651 184.052 87.9967 184.098 88.04 184.13C88.0833 184.162 88.1359 184.18 88.19 184.18C88.2441 184.18 88.2967 184.162 88.34 184.13C88.3833 184.098 88.4149 184.052 88.43 184L98.76 151.49C98.8164 151.315 98.9104 151.155 99.0349 151.021C99.1595 150.888 99.3116 150.785 99.48 150.72C101.46 149.94 105.62 149.59 106.49 152.37C109.777 162.937 113.057 173.443 116.33 183.89C116.35 183.952 116.39 184.007 116.443 184.045C116.496 184.084 116.559 184.105 116.625 184.105C116.691 184.105 116.754 184.084 116.807 184.045C116.86 184.007 116.9 183.952 116.92 183.89L126.23 152.6C126.697 151.02 127.757 150.233 129.41 150.24L131.91 150.25C133.69 150.257 134.32 151.11 133.8 152.81C129.68 166.31 125.543 179.847 121.39 193.42C120.803 195.347 119.38 196.103 117.12 195.69C114.46 195.21 113.29 195.42 112.43 192.75C109.15 182.637 105.893 172.567 102.66 162.54Z" fill="white"/>
<path d="M447.77 155.23C452.077 150.723 457.433 149.197 463.84 150.65C464.2 150.73 464.423 150.947 464.51 151.3C464.99 153.22 464.917 155.107 464.29 156.96C464.224 157.154 464.095 157.321 463.925 157.433C463.755 157.545 463.552 157.597 463.35 157.58C459.06 157.22 453.75 157.16 450.51 160.09C448.563 161.837 447.583 164.053 447.57 166.74C447.517 175.44 447.507 184.11 447.54 192.75C447.553 194.583 446.64 195.5 444.8 195.5H442.28C440.46 195.5 439.55 194.593 439.55 192.78V152.03C439.55 151.788 439.599 151.548 439.693 151.325C439.788 151.102 439.927 150.9 440.102 150.732C440.276 150.564 440.483 150.433 440.71 150.346C440.936 150.26 441.178 150.221 441.42 150.23L446.33 150.4C446.54 150.405 446.74 150.488 446.89 150.633C447.041 150.777 447.13 150.973 447.14 151.18L447.33 155.06C447.35 155.46 447.497 155.517 447.77 155.23Z" fill="white"/>
<path d="M322.49 234.99C321.266 234.992 320.053 234.704 318.921 234.143C317.79 233.582 316.761 232.758 315.894 231.718C315.026 230.679 314.338 229.444 313.867 228.085C313.396 226.726 313.153 225.268 313.15 223.796C313.147 222.324 313.386 220.866 313.852 219.505C314.318 218.144 315.002 216.907 315.866 215.865C316.73 214.822 317.756 213.995 318.885 213.43C320.015 212.864 321.226 212.572 322.45 212.57C323.674 212.568 324.887 212.856 326.018 213.417C327.15 213.978 328.179 214.802 329.046 215.842C329.914 216.881 330.602 218.116 331.073 219.475C331.544 220.834 331.787 222.292 331.79 223.764C331.793 225.236 331.554 226.694 331.088 228.055C330.622 229.416 329.938 230.653 329.074 231.695C328.21 232.738 327.184 233.565 326.055 234.13C324.925 234.696 323.714 234.988 322.49 234.99ZM322.464 232.62C323.313 232.621 324.153 232.394 324.938 231.949C325.722 231.505 326.436 230.853 327.037 230.03C327.638 229.207 328.116 228.23 328.442 227.155C328.769 226.079 328.938 224.926 328.94 223.761C328.942 222.596 328.777 221.443 328.454 220.366C328.131 219.289 327.657 218.311 327.059 217.486C326.46 216.661 325.749 216.007 324.966 215.56C324.183 215.112 323.344 214.881 322.496 214.88C321.647 214.879 320.807 215.106 320.022 215.551C319.238 215.995 318.524 216.647 317.923 217.47C317.322 218.293 316.844 219.27 316.518 220.345C316.191 221.421 316.022 222.574 316.02 223.739C316.018 224.904 316.183 226.057 316.506 227.134C316.829 228.211 317.303 229.189 317.901 230.014C318.5 230.839 319.211 231.493 319.994 231.941C320.777 232.388 321.616 232.619 322.464 232.62Z" fill="white"/>
<path d="M353.2 215.33C342.23 212.41 340.5 234.76 353.59 232.11C353.9 232.046 354.176 231.872 354.37 231.62C355.083 230.707 355.94 230.51 356.94 231.03C357.313 231.223 357.393 231.5 357.18 231.86C356.273 233.427 354.883 234.353 353.01 234.64C343.73 236.07 339.86 226.92 342.29 219.62C344.41 213.27 350.82 210.41 356.57 214.86C356.903 215.113 356.927 215.393 356.64 215.7L355.88 216.51C355.62 216.79 355.353 216.8 355.08 216.54C354.393 215.88 353.767 215.477 353.2 215.33Z" fill="white"/>
<path d="M368.513 234.999C367.293 234.987 366.088 234.684 364.967 234.108C363.845 233.533 362.83 232.695 361.978 231.645C361.127 230.594 360.455 229.35 360.003 227.984C359.55 226.617 359.325 225.156 359.341 223.683C359.356 222.209 359.612 220.753 360.093 219.397C360.574 218.04 361.271 216.811 362.144 215.778C363.018 214.745 364.051 213.929 365.184 213.377C366.317 212.825 367.528 212.548 368.748 212.561C369.967 212.573 371.172 212.876 372.293 213.452C373.415 214.028 374.43 214.865 375.282 215.915C376.133 216.966 376.805 218.21 377.257 219.576C377.71 220.943 377.935 222.404 377.92 223.877C377.904 225.351 377.649 226.807 377.167 228.163C376.686 229.52 375.989 230.749 375.116 231.782C374.242 232.815 373.209 233.631 372.076 234.183C370.943 234.735 369.732 235.012 368.513 234.999ZM368.55 232.6C370.258 232.6 371.896 231.666 373.104 230.002C374.312 228.339 374.99 226.082 374.99 223.73C374.99 221.378 374.312 219.121 373.104 217.458C371.896 215.795 370.258 214.86 368.55 214.86C366.842 214.86 365.204 215.795 363.996 217.458C362.789 219.121 362.11 221.378 362.11 223.73C362.11 226.082 362.789 228.339 363.996 230.002C365.204 231.666 366.842 232.6 368.55 232.6Z" fill="white"/>
<path d="M216.95 214.86C216.95 214.645 216.992 214.431 217.075 214.232C217.157 214.033 217.278 213.853 217.43 213.7C217.583 213.548 217.763 213.427 217.962 213.345C218.161 213.262 218.375 213.22 218.59 213.22H223.35C225.817 213.22 228.182 214.231 229.926 216.032C231.67 217.832 232.65 220.274 232.65 222.82V225.04C232.65 227.586 231.67 230.028 229.926 231.828C228.182 233.629 225.817 234.64 223.35 234.64H218.59C218.155 234.64 217.738 234.467 217.43 234.16C217.123 233.852 216.95 233.435 216.95 233V214.86ZM220.17 215.89L220.06 231.67C220.06 231.849 220.13 232.02 220.256 232.147C220.381 232.275 220.551 232.347 220.73 232.35L222.46 232.36C224.414 232.373 226.294 231.593 227.686 230.192C229.077 228.792 229.867 226.884 229.88 224.89L229.9 222.79C229.907 221.802 229.723 220.823 229.358 219.908C228.994 218.993 228.457 218.16 227.777 217.457C227.097 216.754 226.289 216.195 225.397 215.811C224.505 215.427 223.548 215.226 222.58 215.22L220.85 215.21C220.67 215.21 220.497 215.282 220.369 215.409C220.242 215.537 220.17 215.71 220.17 215.89Z" fill="white"/>
<path d="M238.89 228.68L237.14 233.88C236.893 234.6 236.403 234.87 235.67 234.69L235.17 234.57C235.048 234.54 234.934 234.486 234.834 234.41C234.735 234.334 234.652 234.238 234.592 234.129C234.531 234.02 234.495 233.899 234.484 233.775C234.474 233.652 234.489 233.527 234.53 233.41L241.01 214.5C241.148 214.09 241.412 213.734 241.764 213.482C242.116 213.23 242.538 213.095 242.972 213.097C243.405 213.098 243.828 213.235 244.181 213.488C244.535 213.742 244.8 214.099 244.94 214.51L251.4 233.45C251.44 233.57 251.452 233.697 251.437 233.823C251.422 233.948 251.379 234.068 251.312 234.175C251.245 234.281 251.156 234.371 251.05 234.438C250.944 234.504 250.824 234.546 250.7 234.56L250.29 234.61C249.922 234.653 249.55 234.57 249.237 234.373C248.924 234.176 248.689 233.879 248.57 233.53L246.93 228.75C246.817 228.417 246.587 228.25 246.24 228.25H239.5C239.193 228.25 238.99 228.393 238.89 228.68ZM239.93 225.12C239.908 225.192 239.903 225.268 239.916 225.342C239.929 225.416 239.959 225.486 240.004 225.546C240.048 225.606 240.107 225.655 240.174 225.689C240.241 225.723 240.315 225.74 240.39 225.74L245.44 225.76C245.516 225.762 245.591 225.745 245.66 225.712C245.728 225.679 245.788 225.631 245.833 225.57C245.879 225.51 245.91 225.439 245.923 225.364C245.937 225.289 245.932 225.213 245.91 225.14L243.41 216.65C243.382 216.551 243.322 216.463 243.24 216.4C243.157 216.338 243.057 216.303 242.954 216.302C242.85 216.301 242.749 216.333 242.666 216.394C242.582 216.455 242.521 216.541 242.49 216.64L239.93 225.12Z" fill="white"/>
<path d="M264.75 225.95L268.96 233.27C269.4 234.037 269.177 234.46 268.29 234.54L267.9 234.58C267.531 234.613 267.16 234.538 266.832 234.364C266.503 234.19 266.232 233.925 266.05 233.6L261.77 225.92C261.623 225.653 261.397 225.517 261.09 225.51L258.27 225.46C257.75 225.453 257.49 225.71 257.49 226.23V233.69C257.49 233.837 257.459 233.982 257.397 234.115C257.336 234.249 257.246 234.367 257.134 234.463C257.022 234.559 256.891 234.63 256.748 234.671C256.606 234.712 256.457 234.722 256.31 234.7L256.02 234.65C255.167 234.517 254.74 234.017 254.74 233.15V214.26C254.743 214.057 254.819 213.862 254.953 213.711C255.087 213.561 255.271 213.464 255.47 213.44C259.48 212.91 267.91 212.07 268.81 217.77C269.197 220.203 268.573 222.247 266.94 223.9C266.47 224.38 265.48 224.67 264.88 225.17C264.62 225.397 264.577 225.657 264.75 225.95ZM257.51 216.51L257.45 222.01C257.447 222.34 257.575 222.657 257.805 222.893C258.036 223.129 258.35 223.265 258.68 223.27L261.87 223.31C262.448 223.317 263.022 223.224 263.559 223.034C264.096 222.844 264.585 222.563 264.998 222.205C265.412 221.848 265.741 221.421 265.968 220.95C266.195 220.479 266.314 219.973 266.32 219.46V219.26C266.332 218.227 265.88 217.23 265.064 216.49C264.249 215.749 263.136 215.325 261.97 215.31L258.78 215.27C258.615 215.267 258.451 215.297 258.298 215.358C258.145 215.419 258.005 215.51 257.887 215.625C257.769 215.741 257.675 215.878 257.61 216.03C257.545 216.182 257.511 216.345 257.51 216.51Z" fill="white"/>
<path d="M277.04 232.08L286.24 232.09C286.295 232.09 286.35 232.101 286.401 232.122C286.452 232.143 286.498 232.174 286.537 232.213C286.576 232.252 286.607 232.298 286.628 232.349C286.649 232.4 286.66 232.455 286.66 232.51V234.15C286.66 234.205 286.649 234.26 286.628 234.311C286.607 234.362 286.576 234.408 286.537 234.447C286.498 234.486 286.452 234.517 286.401 234.538C286.35 234.559 286.295 234.57 286.24 234.57L274.35 234.56C274.239 234.56 274.132 234.516 274.053 234.437C273.974 234.358 273.93 234.251 273.93 234.14L273.96 213.68C273.96 213.569 274.004 213.462 274.083 213.383C274.162 213.304 274.269 213.26 274.38 213.26L285.81 213.3C285.867 213.3 285.923 213.311 285.975 213.334C286.028 213.356 286.075 213.389 286.114 213.43C286.154 213.471 286.184 213.52 286.204 213.573C286.224 213.626 286.233 213.683 286.23 213.74L286.19 214.86C286.185 214.968 286.138 215.07 286.06 215.144C285.982 215.219 285.878 215.26 285.77 215.26L277.07 215.24C276.96 215.24 276.855 215.283 276.776 215.359C276.698 215.436 276.653 215.54 276.65 215.65L276.57 221.81C276.57 221.921 276.614 222.028 276.693 222.107C276.772 222.186 276.879 222.23 276.99 222.23L284.3 222.14C284.356 222.14 284.411 222.151 284.463 222.173C284.515 222.195 284.561 222.226 284.601 222.267C284.64 222.307 284.67 222.354 284.691 222.406C284.711 222.458 284.721 222.514 284.72 222.57L284.66 224.14C284.655 224.248 284.608 224.35 284.53 224.424C284.452 224.499 284.348 224.54 284.24 224.54L277.03 224.56C276.919 224.56 276.812 224.604 276.733 224.683C276.654 224.762 276.61 224.869 276.61 224.98L276.62 231.66C276.62 231.771 276.664 231.878 276.743 231.957C276.822 232.036 276.929 232.08 277.04 232.08Z" fill="white"/>
<path d="M304.87 215.7L304.81 234.42C304.809 234.48 304.796 234.539 304.77 234.593C304.745 234.647 304.708 234.695 304.663 234.734C304.617 234.772 304.564 234.801 304.507 234.818C304.449 234.834 304.389 234.839 304.33 234.83L302.58 234.56C302.481 234.543 302.391 234.492 302.327 234.415C302.263 234.338 302.229 234.24 302.23 234.14L302.22 215.69C302.22 215.635 302.209 215.58 302.188 215.529C302.167 215.478 302.136 215.432 302.097 215.393C302.058 215.354 302.012 215.323 301.961 215.302C301.91 215.281 301.855 215.27 301.8 215.27L296.19 215.23C296.082 215.23 295.978 215.189 295.9 215.114C295.822 215.04 295.775 214.938 295.77 214.83L295.72 213.72C295.717 213.663 295.726 213.606 295.746 213.553C295.766 213.5 295.796 213.451 295.836 213.41C295.875 213.369 295.922 213.336 295.975 213.314C296.027 213.291 296.083 213.28 296.14 213.28L311.05 213.27C311.106 213.27 311.161 213.281 311.213 213.303C311.265 213.325 311.311 213.356 311.351 213.397C311.39 213.437 311.42 213.484 311.441 213.536C311.461 213.588 311.471 213.644 311.47 213.7L311.44 214.82C311.437 214.93 311.392 215.034 311.313 215.111C311.235 215.187 311.13 215.23 311.02 215.23L305.29 215.28C305.179 215.28 305.072 215.324 304.993 215.403C304.914 215.482 304.87 215.589 304.87 215.7Z" fill="white"/>
<path d="M382.47 214.12C382.469 214.008 382.489 213.898 382.531 213.794C382.572 213.69 382.634 213.596 382.712 213.516C382.79 213.436 382.883 213.372 382.985 213.328C383.088 213.285 383.198 213.261 383.31 213.26L388.62 213.25C391.037 213.242 393.358 214.194 395.074 215.896C396.79 217.599 397.759 219.913 397.77 222.33L397.79 225.45C397.795 226.648 397.564 227.836 397.11 228.945C396.656 230.055 395.988 231.063 395.144 231.914C394.299 232.765 393.296 233.441 392.19 233.903C391.084 234.366 389.899 234.606 388.7 234.61L383.39 234.62C383.278 234.621 383.168 234.601 383.064 234.559C382.96 234.518 382.866 234.456 382.786 234.378C382.706 234.3 382.642 234.207 382.599 234.105C382.555 234.002 382.531 233.892 382.53 233.78L382.47 214.12ZM385.3 216.18L385.08 231.38C385.079 231.511 385.103 231.642 385.152 231.763C385.201 231.885 385.274 231.996 385.366 232.09C385.458 232.184 385.567 232.259 385.688 232.31C385.809 232.362 385.939 232.389 386.07 232.39L387.66 232.42C388.634 232.434 389.601 232.251 390.506 231.88C391.411 231.509 392.236 230.958 392.934 230.259C393.633 229.559 394.191 228.725 394.576 227.804C394.961 226.883 395.167 225.893 395.18 224.89L395.2 222.95C395.228 220.928 394.474 218.977 393.105 217.528C391.736 216.078 389.864 215.248 387.9 215.22L386.31 215.19C386.179 215.189 386.048 215.213 385.927 215.262C385.805 215.311 385.694 215.384 385.6 215.476C385.506 215.568 385.431 215.677 385.38 215.798C385.328 215.919 385.301 216.049 385.3 216.18Z" fill="white"/>
<path d="M405.28 224.98L405.25 231.65C405.25 231.761 405.294 231.868 405.373 231.947C405.452 232.026 405.559 232.07 405.67 232.07L414.89 232.1C414.946 232.1 415.001 232.111 415.053 232.133C415.105 232.155 415.151 232.186 415.191 232.227C415.23 232.267 415.26 232.314 415.281 232.366C415.301 232.418 415.311 232.474 415.31 232.53L415.26 234.16C415.257 234.27 415.212 234.374 415.134 234.451C415.055 234.527 414.95 234.57 414.84 234.57L403.01 234.55C402.899 234.55 402.792 234.506 402.713 234.427C402.634 234.348 402.59 234.241 402.59 234.13V213.67C402.59 213.559 402.634 213.452 402.713 213.373C402.792 213.294 402.899 213.25 403.01 213.25L414.47 213.29C414.576 213.29 414.679 213.33 414.757 213.402C414.835 213.475 414.882 213.574 414.89 213.68L414.98 214.79C414.984 214.848 414.976 214.905 414.957 214.96C414.938 215.014 414.908 215.064 414.868 215.107C414.829 215.149 414.781 215.182 414.728 215.205C414.675 215.228 414.618 215.24 414.56 215.24L405.72 215.28C405.61 215.28 405.505 215.323 405.426 215.399C405.348 215.476 405.303 215.58 405.3 215.69L405.23 221.71C405.23 221.82 405.273 221.925 405.349 222.004C405.426 222.082 405.53 222.127 405.64 222.13L413.08 222.21C413.141 222.211 413.201 222.224 413.255 222.25C413.31 222.276 413.359 222.314 413.398 222.36C413.437 222.407 413.465 222.462 413.481 222.52C413.497 222.579 413.5 222.64 413.49 222.7L413.24 224.19C413.224 224.287 413.174 224.375 413.099 224.439C413.024 224.503 412.929 224.539 412.83 224.54L405.7 224.56C405.589 224.56 405.482 224.604 405.403 224.683C405.324 224.762 405.28 224.869 405.28 224.98Z" fill="white"/>
<path d="M208.7 222.47H84.72C84.5709 222.47 84.45 222.591 84.45 222.74V224.94C84.45 225.089 84.5709 225.21 84.72 225.21H208.7C208.849 225.21 208.97 225.089 208.97 224.94V222.74C208.97 222.591 208.849 222.47 208.7 222.47Z" fill="white"/>
<path d="M547.67 222.47H423.69C423.541 222.47 423.42 222.591 423.42 222.74V224.94C423.42 225.089 423.541 225.21 423.69 225.21H547.67C547.819 225.21 547.94 225.089 547.94 224.94V222.74C547.94 222.591 547.819 222.47 547.67 222.47Z" fill="white"/>
</svg>
