<?xml version="1.0" encoding="UTF-8" standalone="no"?>
<!DOCTYPE svg PUBLIC "-//W3C//DTD SVG 1.1//EN" "http://www.w3.org/Graphics/SVG/1.1/DTD/svg11.dtd">
<svg xmlns="http://www.w3.org/2000/svg" version="1.1" viewBox="0.00 0.00 634.00 390.00">
<path fill="#000000" d="
  M 201.71 155.01
  A 0.32 0.32 0.0 0 0 202.26 155.23
  Q 207.22 149.79 214.62 149.48
  Q 228.76 148.89 232.79 161.75
  C 235.46 170.31 235.04 183.06 229.58 190.04
  C 223.25 198.12 208.70 198.57 202.00 190.29
  A 0.40 0.40 0.0 0 0 201.31 190.65
  Q 202.02 193.09 200.63 195.03
  A 1.03 1.03 0.0 0 1 199.82 195.45
  L 195.79 195.52
  A 1.98 1.98 0.0 0 1 193.78 193.54
  L 193.77 136.25
  Q 193.77 133.77 196.25 133.76
  L 199.22 133.74
  Q 201.71 133.73 201.71 136.22
  L 201.71 155.01
  Z
  M 205.13 160.02
  C 199.69 166.18 200.06 183.33 207.78 187.92
  C 214.40 191.87 223.43 188.77 225.42 180.95
  C 226.99 174.82 227.17 164.80 222.84 159.84
  C 218.44 154.80 209.34 155.25 205.13 160.02
  Z"
/>
<path fill="#000000" d="
  M 275.71 154.98
  L 275.70 136.28
  Q 275.70 133.76 278.22 133.75
  L 281.15 133.75
  Q 283.56 133.74 283.56 136.15
  L 283.56 193.22
  Q 283.56 195.50 281.28 195.50
  L 278.11 195.50
  A 2.15 2.15 0.0 0 1 275.96 193.36
  L 275.95 190.51
  A 0.35 0.35 0.0 0 0 275.32 190.29
  Q 271.49 195.07 266.23 195.88
  Q 247.43 198.77 243.67 180.74
  C 241.67 171.13 242.87 155.52 253.90 151.08
  Q 265.42 146.43 275.29 155.16
  Q 275.71 155.53 275.71 154.98
  Z
  M 264.77 189.42
  C 274.92 188.56 276.50 176.69 275.51 168.52
  Q 274.14 157.32 264.54 156.40
  C 257.81 155.76 252.70 159.26 251.49 165.99
  C 249.81 175.39 250.77 190.61 264.77 189.42
  Z"
/>
<path fill="#000000" d="
  M 357.87 161.21
  Q 358.51 165.19 359.41 161.26
  Q 361.06 153.94 362.28 146.52
  A 3.08 3.07 11.3 0 1 366.03 144.03
  L 366.92 144.25
  A 2.55 2.54 -78.1 0 1 368.83 147.18
  L 366.86 158.03
  Q 366.76 158.57 367.31 158.52
  Q 370.76 158.20 371.87 161.38
  Q 372.04 161.84 372.52 161.80
  C 380.50 161.10 373.89 175.82 372.69 179.09
  C 371.88 181.28 372.15 183.14 372.08 185.43
  Q 372.07 186.00 371.50 186.00
  L 354.97 186.00
  A 0.62 0.61 -83.9 0 1 354.37 185.25
  C 355.03 182.15 354.55 180.63 352.11 178.54
  Q 349.68 176.46 347.39 174.37
  C 343.70 171.02 346.31 165.68 351.31 166.31
  Q 351.94 166.39 351.84 165.76
  L 348.94 147.32
  A 2.77 2.77 0.0 0 1 351.19 144.16
  L 351.74 144.07
  Q 354.98 143.48 355.51 146.74
  L 357.87 161.21
  Z"
/>
<path fill="#000000" d="
  M 152.64 176.13
  C 152.88 182.84 156.64 189.43 164.00 189.98
  Q 170.86 190.50 175.63 184.27
  A 1.28 1.26 -77.1 0 1 176.35 183.81
  Q 179.69 182.98 182.96 183.97
  A 0.67 0.66 12.0 0 1 183.44 184.70
  C 182.28 193.66 168.91 196.85 161.97 196.06
  C 148.24 194.51 143.64 181.97 144.68 169.91
  C 145.69 158.28 152.10 149.63 164.49 149.53
  C 179.49 149.40 184.82 160.67 184.74 173.79
  A 1.73 1.72 0.2 0 1 183.01 175.50
  L 153.25 175.50
  Q 152.62 175.50 152.64 176.13
  Z
  M 152.98 169.46
  L 176.44 169.54
  A 0.34 0.34 0.0 0 0 176.78 169.20
  L 176.78 168.15
  A 12.35 11.88 -89.8 0 0 164.94 155.76
  L 164.56 155.76
  A 12.35 11.88 -89.8 0 0 152.64 168.07
  L 152.64 169.12
  A 0.34 0.34 0.0 0 0 152.98 169.46
  Z"
/>
<path fill="#000000" d="
  M 300.03 176.05
  C 300.46 182.91 304.25 189.65 311.49 190.03
  Q 318.60 190.40 323.35 183.96
  A 0.96 0.95 -72.3 0 1 324.10 183.57
  L 329.53 183.54
  A 1.47 1.47 0.0 0 1 330.95 185.42
  C 328.52 193.69 317.07 196.81 309.74 196.09
  Q 304.14 195.55 300.13 192.61
  C 290.13 185.31 289.78 165.65 296.74 156.52
  Q 301.81 149.88 311.24 149.54
  C 326.30 149.01 332.10 159.91 332.21 173.09
  Q 332.23 175.50 329.81 175.50
  L 300.55 175.50
  Q 299.99 175.50 300.03 176.05
  Z
  M 300.67 169.61
  L 323.61 169.53
  A 0.62 0.62 0.0 0 0 324.23 168.91
  L 324.23 168.10
  A 12.37 11.88 89.8 0 0 312.31 155.77
  L 311.89 155.77
  A 12.37 11.88 89.8 0 0 300.05 168.18
  L 300.05 168.99
  A 0.62 0.62 0.0 0 0 300.67 169.61
  Z"
/>
<path fill="#000000" d="
  M 398.43 176.07
  C 398.55 189.51 413.08 195.23 421.34 184.32
  Q 421.65 183.90 422.17 183.79
  Q 425.15 183.13 428.19 183.74
  A 1.50 1.49 -72.1 0 1 429.25 185.82
  C 426.20 192.58 419.26 195.51 412.42 196.13
  C 396.24 197.60 389.52 184.58 390.49 170.27
  C 391.21 159.48 396.72 150.60 408.48 149.59
  Q 423.22 148.32 428.61 161.19
  C 430.19 164.95 430.48 169.37 430.51 173.53
  A 1.96 1.96 0.0 0 1 428.55 175.50
  L 399.00 175.50
  Q 398.43 175.50 398.43 176.07
  Z
  M 398.76 169.47
  L 422.24 169.55
  A 0.34 0.34 0.0 0 0 422.58 169.21
  L 422.58 168.23
  A 12.40 11.84 -89.8 0 0 410.78 155.79
  L 410.30 155.79
  A 12.40 11.84 -89.8 0 0 398.42 168.15
  L 398.42 169.13
  A 0.34 0.34 0.0 0 0 398.76 169.47
  Z"
/>
<path fill="#000000" d="
  M 489.50 156.32
  C 482.55 157.98 482.01 165.87 489.11 167.71
  C 494.56 169.13 503.00 170.59 507.21 173.74
  C 511.71 177.11 513.19 183.96 510.30 188.72
  C 506.09 195.67 495.95 196.89 488.51 195.72
  Q 480.29 194.42 475.67 187.59
  Q 473.71 184.70 477.11 183.91
  L 477.63 183.79
  A 5.61 5.61 0.0 0 1 483.24 185.70
  Q 487.56 190.96 495.35 189.79
  C 499.30 189.20 503.45 187.87 503.72 183.47
  C 504.29 173.97 480.85 177.74 477.04 166.86
  C 474.41 159.34 479.34 152.40 486.62 150.44
  C 494.80 148.24 505.88 150.09 509.94 158.67
  A 1.81 1.81 0.0 0 1 508.30 161.25
  L 504.26 161.25
  A 0.97 0.93 71.0 0 1 503.50 160.86
  Q 498.52 154.15 489.50 156.32
  Z"
/>
<path fill="#000000" d="
  M 529.52 176.01
  Q 529.62 180.70 531.93 184.44
  C 537.00 192.66 547.66 191.13 552.82 183.94
  A 0.98 0.97 17.7 0 1 553.61 183.54
  L 559.05 183.57
  A 1.53 1.53 0.0 0 1 560.41 185.79
  Q 558.45 189.68 555.80 191.54
  C 543.50 200.14 526.07 197.26 522.41 180.95
  C 519.17 166.49 523.98 149.22 541.99 149.57
  C 556.45 149.84 561.93 160.88 561.54 173.77
  A 1.78 1.78 0.0 0 1 559.76 175.50
  L 530.02 175.50
  Q 529.51 175.50 529.52 176.01
  Z
  M 530.06 169.60
  L 553.06 169.56
  A 0.61 0.61 0.0 0 0 553.67 168.95
  L 553.67 168.18
  A 12.44 11.91 89.9 0 0 541.74 155.76
  L 541.34 155.76
  A 12.44 11.91 89.9 0 0 529.45 168.22
  L 529.45 168.99
  A 0.61 0.61 0.0 0 0 530.06 169.60
  Z"
/>
<path fill="#000000" d="
  M 102.66 162.54
  A 0.26 0.26 0.0 0 0 102.17 162.54
  Q 97.46 177.07 92.73 191.75
  C 91.47 195.65 89.51 196.08 85.75 195.37
  Q 83.97 195.03 83.56 193.71
  Q 77.31 173.43 71.02 152.78
  Q 70.25 150.27 72.88 150.25
  L 75.38 150.23
  Q 77.89 150.22 78.61 152.63
  L 87.95 184.00
  A 0.25 0.25 0.0 0 0 88.43 184.00
  L 98.76 151.49
  A 1.24 1.21 88.6 0 1 99.48 150.72
  C 101.46 149.94 105.62 149.59 106.49 152.37
  Q 111.42 168.22 116.33 183.89
  A 0.31 0.31 0.0 0 0 116.92 183.89
  L 126.23 152.60
  Q 126.93 150.23 129.41 150.24
  L 131.91 150.25
  Q 134.58 150.26 133.80 152.81
  Q 127.62 173.06 121.39 193.42
  Q 120.51 196.31 117.12 195.69
  C 114.46 195.21 113.29 195.42 112.43 192.75
  Q 107.51 177.58 102.66 162.54
  Z"
/>
<path fill="#000000" d="
  M 447.77 155.23
  Q 454.23 148.47 463.84 150.65
  Q 464.38 150.77 464.51 151.30
  Q 465.23 154.18 464.29 156.96
  A 0.92 0.91 -78.2 0 1 463.35 157.58
  C 459.06 157.22 453.75 157.16 450.51 160.09
  Q 447.59 162.71 447.57 166.74
  Q 447.49 179.79 447.54 192.75
  Q 447.56 195.50 444.80 195.50
  L 442.28 195.50
  Q 439.55 195.50 439.55 192.78
  L 439.55 152.03
  A 1.80 1.80 0.0 0 1 441.42 150.23
  L 446.33 150.40
  A 0.83 0.82 -0.7 0 1 447.14 151.18
  L 447.33 155.06
  Q 447.36 155.66 447.77 155.23
  Z"
/>
<path fill="#000000" d="
  M 322.4896 234.9900
  A 11.21 9.32 89.9 0 1 313.1500 223.7963
  A 11.21 9.32 89.9 0 1 322.4504 212.5700
  A 11.21 9.32 89.9 0 1 331.7900 223.7637
  A 11.21 9.32 89.9 0 1 322.4896 234.9900
  Z
  M 322.4645 232.6200
  A 8.87 6.46 90.1 0 0 328.9400 223.7613
  A 8.87 6.46 90.1 0 0 322.4955 214.8800
  A 8.87 6.46 90.1 0 0 316.0200 223.7387
  A 8.87 6.46 90.1 0 0 322.4645 232.6200
  Z"
/>
<path fill="#000000" d="
  M 353.20 215.33
  C 342.23 212.41 340.50 234.76 353.59 232.11
  A 1.33 1.32 -77.0 0 0 354.37 231.62
  Q 355.44 230.25 356.94 231.03
  Q 357.50 231.32 357.18 231.86
  Q 355.82 234.21 353.01 234.64
  C 343.73 236.07 339.86 226.92 342.29 219.62
  C 344.41 213.27 350.82 210.41 356.57 214.86
  Q 357.07 215.24 356.64 215.70
  L 355.88 216.51
  Q 355.49 216.93 355.08 216.54
  Q 354.05 215.55 353.20 215.33
  Z"
/>
<path fill="#000000" d="
  M 368.5125 234.9994
  A 11.22 9.29 90.6 0 1 359.3405 223.6827
  A 11.22 9.29 90.6 0 1 368.7475 212.5606
  A 11.22 9.29 90.6 0 1 377.9195 223.8773
  A 11.22 9.29 90.6 0 1 368.5125 234.9994
  Z
  M 368.5500 232.6000
  A 8.87 6.44 90.0 0 0 374.9900 223.7300
  A 8.87 6.44 90.0 0 0 368.5500 214.8600
  A 8.87 6.44 90.0 0 0 362.1100 223.7300
  A 8.87 6.44 90.0 0 0 368.5500 232.6000
  Z"
/>
<path fill="#000000" d="
  M 216.95 214.86
  A 1.64 1.64 0.0 0 1 218.59 213.22
  L 223.35 213.22
  A 9.60 9.30 90.0 0 1 232.65 222.82
  L 232.65 225.04
  A 9.60 9.30 90.0 0 1 223.35 234.64
  L 218.59 234.64
  A 1.64 1.64 0.0 0 1 216.95 233.00
  L 216.95 214.86
  Z
  M 220.17 215.89
  L 220.06 231.67
  A 0.68 0.68 0.0 0 0 220.73 232.35
  L 222.46 232.36
  A 7.52 7.37 -89.6 0 0 229.88 224.89
  L 229.90 222.79
  A 7.52 7.37 -89.6 0 0 222.58 215.22
  L 220.85 215.21
  A 0.68 0.68 0.0 0 0 220.17 215.89
  Z"
/>
<path fill="#000000" d="
  M 238.89 228.68
  L 237.14 233.88
  Q 236.77 234.96 235.67 234.69
  L 235.17 234.57
  A 0.90 0.89 16.2 0 1 234.53 233.41
  L 241.01 214.50
  A 2.08 2.07 45.1 0 1 244.94 214.51
  L 251.40 233.45
  A 0.85 0.84 77.4 0 1 250.70 234.56
  L 250.29 234.61
  A 1.62 1.61 -12.7 0 1 248.57 233.53
  L 246.93 228.75
  Q 246.76 228.25 246.24 228.25
  L 239.50 228.25
  Q 239.04 228.25 238.89 228.68
  Z
  M 239.93 225.12
  A 0.48 0.48 0.0 0 0 240.39 225.74
  L 245.44 225.76
  A 0.48 0.48 0.0 0 0 245.91 225.14
  L 243.41 216.65
  A 0.48 0.48 0.0 0 0 242.49 216.64
  L 239.93 225.12
  Z"
/>
<path fill="#000000" d="
  M 264.75 225.95
  L 268.96 233.27
  Q 269.62 234.42 268.29 234.54
  L 267.90 234.58
  A 1.93 1.92 72.8 0 1 266.05 233.60
  L 261.77 225.92
  Q 261.55 225.52 261.09 225.51
  L 258.27 225.46
  Q 257.49 225.45 257.49 226.23
  L 257.49 233.69
  A 1.03 1.02 4.3 0 1 256.31 234.70
  L 256.02 234.65
  Q 254.74 234.45 254.74 233.15
  L 254.74 214.26
  A 0.84 0.83 86.9 0 1 255.47 213.44
  C 259.48 212.91 267.91 212.07 268.81 217.77
  Q 269.39 221.42 266.94 223.90
  C 266.47 224.38 265.48 224.67 264.88 225.17
  Q 264.49 225.51 264.75 225.95
  Z
  M 257.51 216.51
  L 257.45 222.01
  A 1.25 1.25 0.0 0 0 258.68 223.27
  L 261.87 223.31
  A 4.40 3.90 0.7 0 0 266.32 219.46
  L 266.32 219.26
  A 4.40 3.90 0.7 0 0 261.97 215.31
  L 258.78 215.27
  A 1.25 1.25 0.0 0 0 257.51 216.51
  Z"
/>
<path fill="#000000" d="
  M 277.04 232.08
  L 286.24 232.09
  A 0.42 0.42 0.0 0 1 286.66 232.51
  L 286.66 234.15
  A 0.42 0.42 0.0 0 1 286.24 234.57
  L 274.35 234.56
  A 0.42 0.42 0.0 0 1 273.93 234.14
  L 273.96 213.68
  A 0.42 0.42 0.0 0 1 274.38 213.26
  L 285.81 213.30
  A 0.42 0.42 0.0 0 1 286.23 213.74
  L 286.19 214.86
  A 0.42 0.42 0.0 0 1 285.77 215.26
  L 277.07 215.24
  A 0.42 0.42 0.0 0 0 276.65 215.65
  L 276.57 221.81
  A 0.42 0.42 0.0 0 0 276.99 222.23
  L 284.30 222.14
  A 0.42 0.42 0.0 0 1 284.72 222.57
  L 284.66 224.14
  A 0.42 0.42 0.0 0 1 284.24 224.54
  L 277.03 224.56
  A 0.42 0.42 0.0 0 0 276.61 224.98
  L 276.62 231.66
  A 0.42 0.42 0.0 0 0 277.04 232.08
  Z"
/>
<path fill="#000000" d="
  M 304.87 215.70
  L 304.81 234.42
  A 0.42 0.42 0.0 0 1 304.33 234.83
  L 302.58 234.56
  A 0.42 0.42 0.0 0 1 302.23 234.14
  L 302.22 215.69
  A 0.42 0.42 0.0 0 0 301.80 215.27
  L 296.19 215.23
  A 0.42 0.42 0.0 0 1 295.77 214.83
  L 295.72 213.72
  A 0.42 0.42 0.0 0 1 296.14 213.28
  L 311.05 213.27
  A 0.42 0.42 0.0 0 1 311.47 213.70
  L 311.44 214.82
  A 0.42 0.42 0.0 0 1 311.02 215.23
  L 305.29 215.28
  A 0.42 0.42 0.0 0 0 304.87 215.70
  Z"
/>
<path fill="#000000" d="
  M 382.47 214.12
  A 0.85 0.85 0.0 0 1 383.31 213.26
  L 388.62 213.25
  A 9.12 9.12 0.0 0 1 397.77 222.33
  L 397.79 225.45
  A 9.12 9.12 0.0 0 1 388.70 234.61
  L 383.39 234.62
  A 0.85 0.85 0.0 0 1 382.53 233.78
  L 382.47 214.12
  Z
  M 385.30 216.18
  L 385.08 231.38
  A 1.00 1.00 0.0 0 0 386.07 232.39
  L 387.66 232.42
  A 7.63 7.41 -89.2 0 0 395.18 224.89
  L 395.20 222.95
  A 7.63 7.41 -89.2 0 0 387.90 215.22
  L 386.31 215.19
  A 1.00 1.00 0.0 0 0 385.30 216.18
  Z"
/>
<path fill="#000000" d="
  M 405.28 224.98
  L 405.25 231.65
  A 0.42 0.42 0.0 0 0 405.67 232.07
  L 414.89 232.10
  A 0.42 0.42 0.0 0 1 415.31 232.53
  L 415.26 234.16
  A 0.42 0.42 0.0 0 1 414.84 234.57
  L 403.01 234.55
  A 0.42 0.42 0.0 0 1 402.59 234.13
  L 402.59 213.67
  A 0.42 0.42 0.0 0 1 403.01 213.25
  L 414.47 213.29
  A 0.42 0.42 0.0 0 1 414.89 213.68
  L 414.98 214.79
  A 0.42 0.42 0.0 0 1 414.56 215.24
  L 405.72 215.28
  A 0.42 0.42 0.0 0 0 405.30 215.69
  L 405.23 221.71
  A 0.42 0.42 0.0 0 0 405.64 222.13
  L 413.08 222.21
  A 0.42 0.42 0.0 0 1 413.49 222.70
  L 413.24 224.19
  A 0.42 0.42 0.0 0 1 412.83 224.54
  L 405.70 224.56
  A 0.42 0.42 0.0 0 0 405.28 224.98
  Z"
/>
<rect fill="#000000" x="84.45" y="222.47" width="124.52" height="2.74" rx="0.27"/>
<rect fill="#000000" x="423.42" y="222.47" width="124.52" height="2.74" rx="0.27"/>
</svg>
