<?xml version="1.0" encoding="UTF-8" standalone="no"?>
<!DOCTYPE svg PUBLIC "-//W3C//DTD SVG 1.1//EN" "http://www.w3.org/Graphics/SVG/1.1/DTD/svg11.dtd">
<svg xmlns="http://www.w3.org/2000/svg" version="1.1" viewBox="0.00 0.00 634.00 390.00">
<g stroke-width="2.00" fill="none" stroke-linecap="butt">
<path stroke="#7f8080" vector-effect="non-scaling-stroke" d="
  M 201.81 190.37
  Q 209.86 198.79 221.56 195.31
  Q 229.15 193.05 231.87 186.30
  C 236.75 174.18 235.69 152.06 219.01 149.74
  Q 209.05 148.36 202.12 155.16
  Q 201.71 155.57 201.71 154.98
  L 201.71 136.23
  Q 201.71 133.74 199.23 133.75
  L 196.01 133.75
  Q 193.77 133.76 193.77 135.99
  L 193.77 193.38
  A 2.11 2.11 0.0 0 0 195.88 195.49
  L 199.33 195.50
  A 2.10 2.10 0.0 0 0 201.44 193.42
  L 201.47 190.50
  Q 201.47 190.01 201.81 190.37"
/>
<path stroke="#7f8080" vector-effect="non-scaling-stroke" d="
  M 275.89 190.67
  L 276.07 194.52
  A 0.97 0.96 88.4 0 0 277.03 195.44
  L 282.19 195.42
  A 1.36 1.35 -90.0 0 0 283.54 194.06
  L 283.55 136.02
  Q 283.55 133.75 281.27 133.75
  L 278.10 133.75
  Q 275.70 133.75 275.70 136.15
  L 275.70 154.97
  Q 275.70 155.67 275.21 155.18
  Q 269.84 149.76 261.27 149.58
  C 245.07 149.23 241.59 166.18 243.28 178.72
  C 244.07 184.54 247.48 192.58 253.44 194.78
  Q 266.23 199.50 275.51 190.52
  Q 275.87 190.17 275.89 190.67"
/>
<path stroke="#7f8080" vector-effect="non-scaling-stroke" d="
  M 357.94 161.18
  Q 356.58 154.11 355.59 147.03
  Q 355.15 143.84 351.95 144.19
  L 351.03 144.29
  A 2.40 2.39 -7.5 0 0 348.91 147.05
  L 351.83 165.72
  Q 351.90 166.21 351.41 166.23
  C 348.15 166.41 345.26 167.45 345.74 171.29
  C 346.11 174.31 351.85 178.36 354.13 180.41
  A 1.01 0.99 21.5 0 1 354.46 181.15
  L 354.50 185.50
  Q 354.50 186.00 355.00 186.00
  L 371.51 186.00
  Q 372.07 186.00 372.09 185.44
  C 372.16 183.28 371.91 181.47 372.59 179.39
  C 373.75 175.88 380.60 161.56 372.56 161.76
  Q 372.03 161.78 371.84 161.28
  Q 370.66 158.16 367.32 158.52
  Q 366.76 158.58 366.86 158.04
  L 368.85 147.09
  A 2.38 2.38 0.0 0 0 366.84 144.31
  L 365.79 144.16
  A 3.16 3.16 0.0 0 0 362.23 146.78
  Q 361.03 154.04 359.41 161.20
  Q 358.62 164.70 357.94 161.18"
/>
<path stroke="#7f8080" vector-effect="non-scaling-stroke" d="
  M 153.06 175.50
  L 182.99 175.50
  A 1.73 1.72 0.5 0 0 184.72 173.81
  C 184.97 160.55 179.28 149.27 164.24 149.54
  Q 154.19 149.72 148.89 157.07
  C 141.14 167.83 143.30 191.13 157.92 195.38
  C 165.24 197.50 181.39 195.16 183.41 185.42
  Q 183.81 183.49 181.83 183.51
  L 176.58 183.57
  A 0.90 0.89 17.9 0 0 175.89 183.92
  C 167.48 195.35 152.98 189.77 152.64 175.93
  Q 152.63 175.50 153.06 175.50"
/>
<path stroke="#7f8080" vector-effect="non-scaling-stroke" d="
  M 300.54 175.50
  L 330.29 175.50
  A 1.92 1.92 0.0 0 0 332.21 173.58
  C 332.24 160.32 326.65 149.13 311.49 149.54
  C 299.91 149.86 293.54 157.76 292.30 168.71
  C 291.24 178.03 293.35 189.15 302.18 193.89
  C 311.26 198.76 326.51 196.03 331.03 185.61
  A 1.45 1.45 0.0 0 0 329.72 183.59
  L 324.47 183.52
  Q 323.78 183.51 323.36 184.06
  C 314.91 195.24 300.45 189.77 300.08 175.97
  Q 300.07 175.50 300.54 175.50"
/>
<path stroke="#7f8080" vector-effect="non-scaling-stroke" d="
  M 398.93 175.55
  Q 412.88 175.40 426.83 175.51
  C 428.30 175.53 430.11 175.86 430.46 174.00
  Q 430.92 171.47 430.14 166.84
  C 428.33 156.11 421.15 149.07 409.73 149.52
  C 397.70 150.00 391.36 158.47 390.56 169.63
  C 389.53 184.17 395.80 197.66 412.40 196.14
  C 418.39 195.59 427.75 192.21 429.19 185.37
  A 1.54 1.54 0.0 0 0 427.67 183.52
  L 422.65 183.55
  Q 422.08 183.55 421.74 184.00
  C 413.17 195.15 398.75 189.87 398.44 176.05
  Q 398.43 175.55 398.93 175.55"
/>
<path stroke="#7f8080" vector-effect="non-scaling-stroke" d="
  M 489.52 167.74
  C 482.08 165.97 482.31 158.01 489.49 156.31
  Q 498.52 154.18 503.48 160.84
  Q 503.79 161.25 504.30 161.25
  L 508.32 161.25
  A 1.77 1.77 0.0 0 0 509.93 158.73
  C 506.02 150.24 495.20 148.29 487.04 150.31
  C 474.39 153.45 471.80 170.11 485.51 173.99
  Q 491.61 175.72 497.75 177.27
  C 504.37 178.94 506.31 186.02 499.33 188.79
  Q 490.01 192.49 483.17 185.76
  Q 481.29 183.92 479.85 183.71
  Q 477.84 183.42 475.66 184.20
  A 0.78 0.77 -10.6 0 0 475.15 184.94
  Q 475.23 188.75 478.12 190.97
  Q 489.75 199.89 504.02 194.01
  C 512.49 190.52 514.69 179.80 507.30 173.87
  C 503.54 170.85 493.49 168.69 489.52 167.74"
/>
<path stroke="#7f8080" vector-effect="non-scaling-stroke" d="
  M 530.01 175.50
  L 559.75 175.50
  A 1.78 1.78 0.0 0 0 561.53 173.76
  C 561.88 160.12 555.53 148.54 539.98 149.56
  Q 529.85 150.23 525.08 157.99
  C 519.39 167.26 519.90 185.27 529.27 192.41
  Q 533.23 195.43 538.83 196.07
  C 546.22 196.90 557.71 193.79 560.28 185.59
  A 1.61 1.60 8.4 0 0 558.73 183.51
  L 553.66 183.56
  Q 553.13 183.56 552.81 183.99
  C 544.34 195.14 529.63 189.88 529.57 175.95
  Q 529.57 175.50 530.01 175.50"
/>
<path stroke="#7f8080" vector-effect="non-scaling-stroke" d="
  M 116.33 183.75
  L 106.09 151.54
  Q 105.93 151.05 105.47 150.82
  C 103.54 149.87 99.28 149.60 98.46 152.25
  Q 93.64 168.02 88.42 183.82
  Q 88.15 184.65 87.90 183.81
  L 78.64 152.70
  Q 77.90 150.24 75.33 150.25
  L 73.04 150.25
  Q 70.24 150.26 71.06 152.94
  Q 77.20 173.07 83.02 191.97
  Q 83.65 194.02 83.65 194.02
  C 84.89 196.46 89.70 195.67 91.42 194.68
  A 1.37 1.35 84.0 0 0 92.02 193.93
  L 102.10 162.76
  Q 102.38 161.88 102.67 162.75
  Q 107.69 177.64 112.30 192.65
  C 113.33 196.02 116.61 195.74 119.37 195.44
  A 2.18 2.18 0.0 0 0 121.23 193.90
  L 133.80 152.88
  Q 134.60 150.27 131.87 150.26
  L 129.40 150.24
  Q 126.92 150.23 126.22 152.60
  L 116.96 183.74
  Q 116.65 184.76 116.33 183.75"
/>
<path stroke="#7f8080" vector-effect="non-scaling-stroke" d="
  M 447.31 155.25
  L 447.16 151.16
  A 0.75 0.75 0.0 0 0 446.44 150.44
  L 441.42 150.22
  A 1.80 1.80 0.0 0 0 439.54 152.02
  L 439.54 192.78
  Q 439.54 195.51 442.28 195.50
  L 445.47 195.49
  A 2.08 2.07 -0.3 0 0 447.54 193.41
  Q 447.48 180.10 447.56 166.75
  Q 447.60 160.39 454.23 157.94
  Q 456.21 157.20 463.11 157.49
  A 1.53 1.52 -88.0 0 0 464.70 156.00
  L 464.77 152.20
  A 1.65 1.65 0.0 0 0 463.46 150.55
  Q 453.94 148.60 447.64 155.37
  Q 447.33 155.70 447.31 155.25"
/>
<path stroke="#7f8080" vector-effect="non-scaling-stroke" d="
  M 322.4700 235.0100
  A 11.22 9.30 90.0 0 0 331.7700 223.7900
  A 11.22 9.30 90.0 0 0 322.4700 212.5700
  A 11.22 9.30 90.0 0 0 313.1700 223.7900
  A 11.22 9.30 90.0 0 0 322.4700 235.0100"
/>
<path stroke="#7f8080" vector-effect="non-scaling-stroke" d="
  M 355.78 230.74
  C 340.18 240.32 341.69 207.09 355.45 216.69
  Q 355.68 216.84 355.85 216.63
  L 356.77 215.50
  A 0.32 0.31 41.7 0 0 356.74 215.06
  C 351.15 210.10 343.74 213.40 342.10 220.31
  C 340.86 225.57 342.31 232.60 348.02 234.41
  C 350.79 235.29 355.58 235.06 357.11 231.96
  A 0.94 0.94 0.0 0 0 355.78 230.74"
/>
<path stroke="#7f8080" vector-effect="non-scaling-stroke" d="
  M 368.4923 235.0194
  A 11.24 9.29 90.6 0 0 377.8995 223.8773
  A 11.24 9.29 90.6 0 0 368.7277 212.5406
  A 11.24 9.29 90.6 0 0 359.3205 223.6827
  A 11.24 9.29 90.6 0 0 368.4923 235.0194"
/>
<path stroke="#7f8080" vector-effect="non-scaling-stroke" d="
  M 216.98 214.93
  L 216.94 232.93
  A 1.71 1.71 0.0 0 0 218.65 234.64
  L 223.36 234.65
  A 9.63 9.28 -89.9 0 0 232.66 225.03
  L 232.66 222.87
  A 9.63 9.28 -89.9 0 0 223.40 213.23
  L 218.69 213.22
  A 1.71 1.71 0.0 0 0 216.98 214.93"
/>
<path stroke="#7f8080" vector-effect="non-scaling-stroke" d="
  M 246.92 228.74
  L 248.57 233.52
  Q 248.93 234.57 250.03 234.56
  L 250.44 234.56
  Q 251.77 234.56 251.34 233.30
  L 244.95 214.51
  A 2.08 2.08 0.0 0 0 241.01 214.51
  L 234.49 233.53
  A 0.76 0.75 -74.0 0 0 235.03 234.51
  L 235.48 234.62
  A 1.46 1.45 16.2 0 0 237.20 233.68
  L 238.89 228.68
  Q 239.04 228.23 239.52 228.23
  L 246.24 228.25
  Q 246.75 228.25 246.92 228.74"
/>
<path stroke="#7f8080" vector-effect="non-scaling-stroke" d="
  M 264.99 225.18
  Q 269.57 222.91 268.70 217.57
  C 267.81 212.10 259.70 212.97 255.77 213.40
  Q 254.76 213.51 254.76 214.53
  L 254.75 233.04
  A 1.51 1.51 0.0 0 0 256.04 234.53
  L 256.49 234.60
  A 0.86 0.85 -85.4 0 0 257.48 233.75
  L 257.48 226.13
  A 0.65 0.65 0.0 0 1 258.12 225.48
  L 260.91 225.47
  A 1.02 1.01 -14.5 0 1 261.80 225.99
  L 266.09 233.67
  A 1.86 1.85 70.6 0 0 268.02 234.60
  L 268.43 234.53
  Q 269.57 234.34 268.99 233.33
  L 264.76 225.94
  Q 264.47 225.44 264.99 225.18"
/>
<path stroke="#7f8080" vector-effect="non-scaling-stroke" d="
  M 276.62 225.32
  A 0.81 0.80 0.4 0 1 277.43 224.53
  L 283.49 224.53
  Q 284.71 224.53 284.71 223.31
  L 284.71 223.01
  A 0.89 0.88 -0.3 0 0 283.81 222.13
  L 278.10 222.24
  Q 276.55 222.27 276.57 220.72
  L 276.62 216.56
  Q 276.64 215.25 277.94 215.25
  L 285.27 215.25
  Q 286.18 215.25 286.23 214.35
  L 286.25 213.92
  A 0.60 0.60 0.0 0 0 285.65 213.29
  L 274.59 213.28
  A 0.63 0.63 0.0 0 0 273.96 213.91
  L 273.93 233.99
  A 0.57 0.56 0.5 0 0 274.49 234.55
  L 285.54 234.58
  Q 286.66 234.58 286.62 233.46
  L 286.60 233.07
  A 1.03 1.02 -0.9 0 0 285.57 232.08
  L 277.33 232.09
  Q 276.58 232.09 276.58 231.33
  L 276.62 225.32"
/>
<path stroke="#7f8080" vector-effect="non-scaling-stroke" d="
  M 304.83 215.72
  A 0.42 0.42 0.0 0 1 305.25 215.30
  L 311.03 215.23
  A 0.42 0.42 0.0 0 0 311.45 214.81
  L 311.43 213.69
  A 0.42 0.42 0.0 0 0 311.01 213.27
  L 296.21 213.28
  A 0.42 0.42 0.0 0 0 295.80 213.67
  L 295.73 214.80
  A 0.42 0.42 0.0 0 0 296.14 215.24
  L 301.80 215.27
  A 0.42 0.42 0.0 0 1 302.22 215.69
  L 302.25 234.25
  A 0.42 0.42 0.0 0 0 302.69 234.66
  L 304.42 234.56
  A 0.42 0.42 0.0 0 0 304.82 234.14
  L 304.83 215.72"
/>
<path stroke="#7f8080" vector-effect="non-scaling-stroke" d="
  M 382.47 214.10
  L 382.51 233.76
  A 0.85 0.85 0.0 0 0 383.36 234.61
  L 388.67 234.60
  A 9.16 9.14 89.9 0 0 397.79 225.43
  L 397.79 222.39
  A 9.16 9.14 89.9 0 0 388.63 213.24
  L 383.32 213.25
  A 0.85 0.85 0.0 0 0 382.47 214.10"
/>
<path stroke="#7f8080" vector-effect="non-scaling-stroke" d="
  M 405.27 224.97
  A 0.42 0.42 0.0 0 1 405.69 224.55
  L 412.88 224.52
  A 0.42 0.42 0.0 0 0 413.30 224.14
  L 413.42 222.65
  A 0.42 0.42 0.0 0 0 413.01 222.20
  L 405.67 222.13
  A 0.42 0.42 0.0 0 1 405.25 221.71
  L 405.27 215.71
  A 0.42 0.42 0.0 0 1 405.69 215.29
  L 414.56 215.23
  A 0.42 0.42 0.0 0 0 414.98 214.82
  L 414.99 213.73
  A 0.42 0.42 0.0 0 0 414.57 213.30
  L 403.02 213.26
  A 0.42 0.42 0.0 0 0 402.60 213.68
  L 402.59 234.12
  A 0.42 0.42 0.0 0 0 403.01 234.54
  L 414.88 234.57
  A 0.42 0.42 0.0 0 0 415.30 234.15
  L 415.28 232.50
  A 0.42 0.42 0.0 0 0 414.86 232.08
  L 405.67 232.08
  A 0.42 0.42 0.0 0 1 405.25 231.66
  L 405.27 224.97"
/>
<path stroke="#7f8080" vector-effect="non-scaling-stroke" d="
  M 208.98 222.82
  A 0.33 0.33 0.0 0 0 208.65 222.49
  L 84.83 222.49
  A 0.33 0.33 0.0 0 0 84.50 222.82
  L 84.50 224.88
  A 0.33 0.33 0.0 0 0 84.83 225.21
  L 208.65 225.21
  A 0.33 0.33 0.0 0 0 208.98 224.88
  L 208.98 222.82"
/>
<path stroke="#7f8080" vector-effect="non-scaling-stroke" d="
  M 547.94 222.75
  A 0.26 0.26 0.0 0 0 547.68 222.49
  L 423.74 222.49
  A 0.26 0.26 0.0 0 0 423.48 222.75
  L 423.48 224.95
  A 0.26 0.26 0.0 0 0 423.74 225.21
  L 547.68 225.21
  A 0.26 0.26 0.0 0 0 547.94 224.95
  L 547.94 222.75"
/>
<path stroke="#7f8080" vector-effect="non-scaling-stroke" d="
  M 224.58 183.05
  C 227.90 174.47 227.98 157.12 215.27 156.30
  Q 209.50 155.93 205.88 159.26
  C 199.51 165.12 199.85 183.31 207.82 187.92
  C 213.40 191.14 222.05 189.58 224.58 183.05"
/>
<path stroke="#7f8080" vector-effect="non-scaling-stroke" d="
  M 252.42 163.21
  C 249.84 170.79 249.62 187.04 260.04 189.17
  Q 271.56 191.53 274.76 180.25
  C 276.67 173.55 276.58 162.16 269.76 158.01
  C 263.97 154.48 254.82 156.18 252.42 163.21"
/>
<path stroke="#7f8080" vector-effect="non-scaling-stroke" d="
  M 152.89 169.52
  L 176.51 169.48
  A 0.30 0.30 0.0 0 0 176.81 169.18
  L 176.81 168.31
  A 12.57 11.92 89.9 0 0 164.87 155.76
  L 164.49 155.76
  A 12.57 11.92 89.9 0 0 152.59 168.35
  L 152.59 169.22
  A 0.30 0.30 0.0 0 0 152.89 169.52"
/>
<path stroke="#7f8080" vector-effect="non-scaling-stroke" d="
  M 300.59 169.61
  L 323.67 169.53
  A 0.57 0.57 0.0 0 0 324.24 168.96
  L 324.24 168.17
  A 12.44 11.91 89.8 0 0 312.29 155.77
  L 311.89 155.77
  A 12.44 11.91 89.8 0 0 300.02 168.25
  L 300.02 169.04
  A 0.57 0.57 0.0 0 0 300.59 169.61"
/>
<path stroke="#7f8080" vector-effect="non-scaling-stroke" d="
  M 398.75 169.52
  L 422.23 169.48
  A 0.33 0.33 0.0 0 0 422.56 169.15
  L 422.56 168.15
  A 12.37 11.85 89.9 0 0 410.69 155.80
  L 410.25 155.80
  A 12.37 11.85 89.9 0 0 398.42 168.19
  L 398.42 169.19
  A 0.33 0.33 0.0 0 0 398.75 169.52"
/>
<path stroke="#7f8080" vector-effect="non-scaling-stroke" d="
  M 530.02 169.62
  L 553.10 169.54
  A 0.57 0.57 0.0 0 0 553.67 168.97
  L 553.67 168.17
  A 12.45 11.91 89.8 0 0 541.72 155.76
  L 541.32 155.76
  A 12.45 11.91 89.8 0 0 529.45 168.25
  L 529.45 169.05
  A 0.57 0.57 0.0 0 0 530.02 169.62"
/>
<path stroke="#7f8080" vector-effect="non-scaling-stroke" d="
  M 322.4445 232.6000
  A 8.86 6.47 90.1 0 0 328.9300 223.7513
  A 8.86 6.47 90.1 0 0 322.4755 214.8800
  A 8.86 6.47 90.1 0 0 315.9900 223.7287
  A 8.86 6.47 90.1 0 0 322.4445 232.6000"
/>
<path stroke="#7f8080" vector-effect="non-scaling-stroke" d="
  M 368.5600 232.6000
  A 8.87 6.42 90.0 0 0 374.9800 223.7300
  A 8.87 6.42 90.0 0 0 368.5600 214.8600
  A 8.87 6.42 90.0 0 0 362.1400 223.7300
  A 8.87 6.42 90.0 0 0 368.5600 232.6000"
/>
<path stroke="#7f8080" vector-effect="non-scaling-stroke" d="
  M 220.10 215.98
  L 220.04 231.56
  A 0.77 0.77 0.0 0 0 220.81 232.34
  L 222.50 232.34
  A 7.52 7.36 -89.8 0 0 229.89 224.85
  L 229.89 222.77
  A 7.52 7.36 -89.8 0 0 222.56 215.22
  L 220.87 215.22
  A 0.77 0.77 0.0 0 0 220.10 215.98"
/>
<path stroke="#7f8080" vector-effect="non-scaling-stroke" d="
  M 239.98 225.06
  A 0.54 0.54 0.0 0 0 240.50 225.75
  L 245.35 225.75
  A 0.54 0.54 0.0 0 0 245.87 225.05
  L 243.43 216.90
  A 0.54 0.54 0.0 0 0 242.39 216.90
  L 239.98 225.06"
/>
<path stroke="#7f8080" vector-effect="non-scaling-stroke" d="
  M 257.50 216.35
  L 257.46 222.23
  A 1.05 1.05 0.0 0 0 258.50 223.29
  L 261.87 223.31
  A 4.38 3.79 0.4 0 0 266.28 219.55
  L 266.28 219.15
  A 4.38 3.79 0.4 0 0 261.93 215.33
  L 258.56 215.31
  A 1.05 1.05 0.0 0 0 257.50 216.35"
/>
<path stroke="#7f8080" vector-effect="non-scaling-stroke" d="
  M 385.29 216.08
  L 385.07 231.46
  A 0.89 0.89 0.0 0 0 385.95 232.36
  L 387.60 232.38
  A 7.52 7.44 -89.2 0 0 395.14 224.97
  L 395.17 222.85
  A 7.52 7.44 -89.2 0 0 387.84 215.23
  L 386.19 215.20
  A 0.89 0.89 0.0 0 0 385.29 216.08"
/>
</g>
<path fill="#feffff" d="
  M 0.00 0.00
  L 634.00 0.00
  L 634.00 390.00
  L 0.00 390.00
  L 0.00 0.00
  Z
  M 201.81 190.37
  Q 209.86 198.79 221.56 195.31
  Q 229.15 193.05 231.87 186.30
  C 236.75 174.18 235.69 152.06 219.01 149.74
  Q 209.05 148.36 202.12 155.16
  Q 201.71 155.57 201.71 154.98
  L 201.71 136.23
  Q 201.71 133.74 199.23 133.75
  L 196.01 133.75
  Q 193.77 133.76 193.77 135.99
  L 193.77 193.38
  A 2.11 2.11 0.0 0 0 195.88 195.49
  L 199.33 195.50
  A 2.10 2.10 0.0 0 0 201.44 193.42
  L 201.47 190.50
  Q 201.47 190.01 201.81 190.37
  Z
  M 275.89 190.67
  L 276.07 194.52
  A 0.97 0.96 88.4 0 0 277.03 195.44
  L 282.19 195.42
  A 1.36 1.35 -90.0 0 0 283.54 194.06
  L 283.55 136.02
  Q 283.55 133.75 281.27 133.75
  L 278.10 133.75
  Q 275.70 133.75 275.70 136.15
  L 275.70 154.97
  Q 275.70 155.67 275.21 155.18
  Q 269.84 149.76 261.27 149.58
  C 245.07 149.23 241.59 166.18 243.28 178.72
  C 244.07 184.54 247.48 192.58 253.44 194.78
  Q 266.23 199.50 275.51 190.52
  Q 275.87 190.17 275.89 190.67
  Z
  M 357.94 161.18
  Q 356.58 154.11 355.59 147.03
  Q 355.15 143.84 351.95 144.19
  L 351.03 144.29
  A 2.40 2.39 -7.5 0 0 348.91 147.05
  L 351.83 165.72
  Q 351.90 166.21 351.41 166.23
  C 348.15 166.41 345.26 167.45 345.74 171.29
  C 346.11 174.31 351.85 178.36 354.13 180.41
  A 1.01 0.99 21.5 0 1 354.46 181.15
  L 354.50 185.50
  Q 354.50 186.00 355.00 186.00
  L 371.51 186.00
  Q 372.07 186.00 372.09 185.44
  C 372.16 183.28 371.91 181.47 372.59 179.39
  C 373.75 175.88 380.60 161.56 372.56 161.76
  Q 372.03 161.78 371.84 161.28
  Q 370.66 158.16 367.32 158.52
  Q 366.76 158.58 366.86 158.04
  L 368.85 147.09
  A 2.38 2.38 0.0 0 0 366.84 144.31
  L 365.79 144.16
  A 3.16 3.16 0.0 0 0 362.23 146.78
  Q 361.03 154.04 359.41 161.20
  Q 358.62 164.70 357.94 161.18
  Z
  M 153.06 175.50
  L 182.99 175.50
  A 1.73 1.72 0.5 0 0 184.72 173.81
  C 184.97 160.55 179.28 149.27 164.24 149.54
  Q 154.19 149.72 148.89 157.07
  C 141.14 167.83 143.30 191.13 157.92 195.38
  C 165.24 197.50 181.39 195.16 183.41 185.42
  Q 183.81 183.49 181.83 183.51
  L 176.58 183.57
  A 0.90 0.89 17.9 0 0 175.89 183.92
  C 167.48 195.35 152.98 189.77 152.64 175.93
  Q 152.63 175.50 153.06 175.50
  Z
  M 300.54 175.50
  L 330.29 175.50
  A 1.92 1.92 0.0 0 0 332.21 173.58
  C 332.24 160.32 326.65 149.13 311.49 149.54
  C 299.91 149.86 293.54 157.76 292.30 168.71
  C 291.24 178.03 293.35 189.15 302.18 193.89
  C 311.26 198.76 326.51 196.03 331.03 185.61
  A 1.45 1.45 0.0 0 0 329.72 183.59
  L 324.47 183.52
  Q 323.78 183.51 323.36 184.06
  C 314.91 195.24 300.45 189.77 300.08 175.97
  Q 300.07 175.50 300.54 175.50
  Z
  M 398.93 175.55
  Q 412.88 175.40 426.83 175.51
  C 428.30 175.53 430.11 175.86 430.46 174.00
  Q 430.92 171.47 430.14 166.84
  C 428.33 156.11 421.15 149.07 409.73 149.52
  C 397.70 150.00 391.36 158.47 390.56 169.63
  C 389.53 184.17 395.80 197.66 412.40 196.14
  C 418.39 195.59 427.75 192.21 429.19 185.37
  A 1.54 1.54 0.0 0 0 427.67 183.52
  L 422.65 183.55
  Q 422.08 183.55 421.74 184.00
  C 413.17 195.15 398.75 189.87 398.44 176.05
  Q 398.43 175.55 398.93 175.55
  Z
  M 489.52 167.74
  C 482.08 165.97 482.31 158.01 489.49 156.31
  Q 498.52 154.18 503.48 160.84
  Q 503.79 161.25 504.30 161.25
  L 508.32 161.25
  A 1.77 1.77 0.0 0 0 509.93 158.73
  C 506.02 150.24 495.20 148.29 487.04 150.31
  C 474.39 153.45 471.80 170.11 485.51 173.99
  Q 491.61 175.72 497.75 177.27
  C 504.37 178.94 506.31 186.02 499.33 188.79
  Q 490.01 192.49 483.17 185.76
  Q 481.29 183.92 479.85 183.71
  Q 477.84 183.42 475.66 184.20
  A 0.78 0.77 -10.6 0 0 475.15 184.94
  Q 475.23 188.75 478.12 190.97
  Q 489.75 199.89 504.02 194.01
  C 512.49 190.52 514.69 179.80 507.30 173.87
  C 503.54 170.85 493.49 168.69 489.52 167.74
  Z
  M 530.01 175.50
  L 559.75 175.50
  A 1.78 1.78 0.0 0 0 561.53 173.76
  C 561.88 160.12 555.53 148.54 539.98 149.56
  Q 529.85 150.23 525.08 157.99
  C 519.39 167.26 519.90 185.27 529.27 192.41
  Q 533.23 195.43 538.83 196.07
  C 546.22 196.90 557.71 193.79 560.28 185.59
  A 1.61 1.60 8.4 0 0 558.73 183.51
  L 553.66 183.56
  Q 553.13 183.56 552.81 183.99
  C 544.34 195.14 529.63 189.88 529.57 175.95
  Q 529.57 175.50 530.01 175.50
  Z
  M 116.33 183.75
  L 106.09 151.54
  Q 105.93 151.05 105.47 150.82
  C 103.54 149.87 99.28 149.60 98.46 152.25
  Q 93.64 168.02 88.42 183.82
  Q 88.15 184.65 87.90 183.81
  L 78.64 152.70
  Q 77.90 150.24 75.33 150.25
  L 73.04 150.25
  Q 70.24 150.26 71.06 152.94
  Q 77.20 173.07 83.02 191.97
  Q 83.65 194.02 83.65 194.02
  C 84.89 196.46 89.70 195.67 91.42 194.68
  A 1.37 1.35 84.0 0 0 92.02 193.93
  L 102.10 162.76
  Q 102.38 161.88 102.67 162.75
  Q 107.69 177.64 112.30 192.65
  C 113.33 196.02 116.61 195.74 119.37 195.44
  A 2.18 2.18 0.0 0 0 121.23 193.90
  L 133.80 152.88
  Q 134.60 150.27 131.87 150.26
  L 129.40 150.24
  Q 126.92 150.23 126.22 152.60
  L 116.96 183.74
  Q 116.65 184.76 116.33 183.75
  Z
  M 447.31 155.25
  L 447.16 151.16
  A 0.75 0.75 0.0 0 0 446.44 150.44
  L 441.42 150.22
  A 1.80 1.80 0.0 0 0 439.54 152.02
  L 439.54 192.78
  Q 439.54 195.51 442.28 195.50
  L 445.47 195.49
  A 2.08 2.07 -0.3 0 0 447.54 193.41
  Q 447.48 180.10 447.56 166.75
  Q 447.60 160.39 454.23 157.94
  Q 456.21 157.20 463.11 157.49
  A 1.53 1.52 -88.0 0 0 464.70 156.00
  L 464.77 152.20
  A 1.65 1.65 0.0 0 0 463.46 150.55
  Q 453.94 148.60 447.64 155.37
  Q 447.33 155.70 447.31 155.25
  Z
  M 322.4700 235.0100
  A 11.22 9.30 90.0 0 0 331.7700 223.7900
  A 11.22 9.30 90.0 0 0 322.4700 212.5700
  A 11.22 9.30 90.0 0 0 313.1700 223.7900
  A 11.22 9.30 90.0 0 0 322.4700 235.0100
  Z
  M 355.78 230.74
  C 340.18 240.32 341.69 207.09 355.45 216.69
  Q 355.68 216.84 355.85 216.63
  L 356.77 215.50
  A 0.32 0.31 41.7 0 0 356.74 215.06
  C 351.15 210.10 343.74 213.40 342.10 220.31
  C 340.86 225.57 342.31 232.60 348.02 234.41
  C 350.79 235.29 355.58 235.06 357.11 231.96
  A 0.94 0.94 0.0 0 0 355.78 230.74
  Z
  M 368.4923 235.0194
  A 11.24 9.29 90.6 0 0 377.8995 223.8773
  A 11.24 9.29 90.6 0 0 368.7277 212.5406
  A 11.24 9.29 90.6 0 0 359.3205 223.6827
  A 11.24 9.29 90.6 0 0 368.4923 235.0194
  Z
  M 216.98 214.93
  L 216.94 232.93
  A 1.71 1.71 0.0 0 0 218.65 234.64
  L 223.36 234.65
  A 9.63 9.28 -89.9 0 0 232.66 225.03
  L 232.66 222.87
  A 9.63 9.28 -89.9 0 0 223.40 213.23
  L 218.69 213.22
  A 1.71 1.71 0.0 0 0 216.98 214.93
  Z
  M 246.92 228.74
  L 248.57 233.52
  Q 248.93 234.57 250.03 234.56
  L 250.44 234.56
  Q 251.77 234.56 251.34 233.30
  L 244.95 214.51
  A 2.08 2.08 0.0 0 0 241.01 214.51
  L 234.49 233.53
  A 0.76 0.75 -74.0 0 0 235.03 234.51
  L 235.48 234.62
  A 1.46 1.45 16.2 0 0 237.20 233.68
  L 238.89 228.68
  Q 239.04 228.23 239.52 228.23
  L 246.24 228.25
  Q 246.75 228.25 246.92 228.74
  Z
  M 264.99 225.18
  Q 269.57 222.91 268.70 217.57
  C 267.81 212.10 259.70 212.97 255.77 213.40
  Q 254.76 213.51 254.76 214.53
  L 254.75 233.04
  A 1.51 1.51 0.0 0 0 256.04 234.53
  L 256.49 234.60
  A 0.86 0.85 -85.4 0 0 257.48 233.75
  L 257.48 226.13
  A 0.65 0.65 0.0 0 1 258.12 225.48
  L 260.91 225.47
  A 1.02 1.01 -14.5 0 1 261.80 225.99
  L 266.09 233.67
  A 1.86 1.85 70.6 0 0 268.02 234.60
  L 268.43 234.53
  Q 269.57 234.34 268.99 233.33
  L 264.76 225.94
  Q 264.47 225.44 264.99 225.18
  Z
  M 276.62 225.32
  A 0.81 0.80 0.4 0 1 277.43 224.53
  L 283.49 224.53
  Q 284.71 224.53 284.71 223.31
  L 284.71 223.01
  A 0.89 0.88 -0.3 0 0 283.81 222.13
  L 278.10 222.24
  Q 276.55 222.27 276.57 220.72
  L 276.62 216.56
  Q 276.64 215.25 277.94 215.25
  L 285.27 215.25
  Q 286.18 215.25 286.23 214.35
  L 286.25 213.92
  A 0.60 0.60 0.0 0 0 285.65 213.29
  L 274.59 213.28
  A 0.63 0.63 0.0 0 0 273.96 213.91
  L 273.93 233.99
  A 0.57 0.56 0.5 0 0 274.49 234.55
  L 285.54 234.58
  Q 286.66 234.58 286.62 233.46
  L 286.60 233.07
  A 1.03 1.02 -0.9 0 0 285.57 232.08
  L 277.33 232.09
  Q 276.58 232.09 276.58 231.33
  L 276.62 225.32
  Z
  M 304.83 215.72
  A 0.42 0.42 0.0 0 1 305.25 215.30
  L 311.03 215.23
  A 0.42 0.42 0.0 0 0 311.45 214.81
  L 311.43 213.69
  A 0.42 0.42 0.0 0 0 311.01 213.27
  L 296.21 213.28
  A 0.42 0.42 0.0 0 0 295.80 213.67
  L 295.73 214.80
  A 0.42 0.42 0.0 0 0 296.14 215.24
  L 301.80 215.27
  A 0.42 0.42 0.0 0 1 302.22 215.69
  L 302.25 234.25
  A 0.42 0.42 0.0 0 0 302.69 234.66
  L 304.42 234.56
  A 0.42 0.42 0.0 0 0 304.82 234.14
  L 304.83 215.72
  Z
  M 382.47 214.10
  L 382.51 233.76
  A 0.85 0.85 0.0 0 0 383.36 234.61
  L 388.67 234.60
  A 9.16 9.14 89.9 0 0 397.79 225.43
  L 397.79 222.39
  A 9.16 9.14 89.9 0 0 388.63 213.24
  L 383.32 213.25
  A 0.85 0.85 0.0 0 0 382.47 214.10
  Z
  M 405.27 224.97
  A 0.42 0.42 0.0 0 1 405.69 224.55
  L 412.88 224.52
  A 0.42 0.42 0.0 0 0 413.30 224.14
  L 413.42 222.65
  A 0.42 0.42 0.0 0 0 413.01 222.20
  L 405.67 222.13
  A 0.42 0.42 0.0 0 1 405.25 221.71
  L 405.27 215.71
  A 0.42 0.42 0.0 0 1 405.69 215.29
  L 414.56 215.23
  A 0.42 0.42 0.0 0 0 414.98 214.82
  L 414.99 213.73
  A 0.42 0.42 0.0 0 0 414.57 213.30
  L 403.02 213.26
  A 0.42 0.42 0.0 0 0 402.60 213.68
  L 402.59 234.12
  A 0.42 0.42 0.0 0 0 403.01 234.54
  L 414.88 234.57
  A 0.42 0.42 0.0 0 0 415.30 234.15
  L 415.28 232.50
  A 0.42 0.42 0.0 0 0 414.86 232.08
  L 405.67 232.08
  A 0.42 0.42 0.0 0 1 405.25 231.66
  L 405.27 224.97
  Z
  M 208.98 222.82
  A 0.33 0.33 0.0 0 0 208.65 222.49
  L 84.83 222.49
  A 0.33 0.33 0.0 0 0 84.50 222.82
  L 84.50 224.88
  A 0.33 0.33 0.0 0 0 84.83 225.21
  L 208.65 225.21
  A 0.33 0.33 0.0 0 0 208.98 224.88
  L 208.98 222.82
  Z
  M 547.94 222.75
  A 0.26 0.26 0.0 0 0 547.68 222.49
  L 423.74 222.49
  A 0.26 0.26 0.0 0 0 423.48 222.75
  L 423.48 224.95
  A 0.26 0.26 0.0 0 0 423.74 225.21
  L 547.68 225.21
  A 0.26 0.26 0.0 0 0 547.94 224.95
  L 547.94 222.75
  Z"
/>
<path fill="#000000" d="
  M 201.47 190.50
  L 201.44 193.42
  A 2.10 2.10 0.0 0 1 199.33 195.50
  L 195.88 195.49
  A 2.11 2.11 0.0 0 1 193.77 193.38
  L 193.77 135.99
  Q 193.77 133.76 196.01 133.75
  L 199.23 133.75
  Q 201.71 133.74 201.71 136.23
  L 201.71 154.98
  Q 201.71 155.57 202.12 155.16
  Q 209.05 148.36 219.01 149.74
  C 235.69 152.06 236.75 174.18 231.87 186.30
  Q 229.15 193.05 221.56 195.31
  Q 209.86 198.79 201.81 190.37
  Q 201.47 190.01 201.47 190.50
  Z
  M 224.58 183.05
  C 227.90 174.47 227.98 157.12 215.27 156.30
  Q 209.50 155.93 205.88 159.26
  C 199.51 165.12 199.85 183.31 207.82 187.92
  C 213.40 191.14 222.05 189.58 224.58 183.05
  Z"
/>
<path fill="#000000" d="
  M 275.51 190.52
  Q 266.23 199.50 253.44 194.78
  C 247.48 192.58 244.07 184.54 243.28 178.72
  C 241.59 166.18 245.07 149.23 261.27 149.58
  Q 269.84 149.76 275.21 155.18
  Q 275.70 155.67 275.70 154.97
  L 275.70 136.15
  Q 275.70 133.75 278.10 133.75
  L 281.27 133.75
  Q 283.55 133.75 283.55 136.02
  L 283.54 194.06
  A 1.36 1.35 90.0 0 1 282.19 195.42
  L 277.03 195.44
  A 0.97 0.96 88.4 0 1 276.07 194.52
  L 275.89 190.67
  Q 275.87 190.17 275.51 190.52
  Z
  M 252.42 163.21
  C 249.84 170.79 249.62 187.04 260.04 189.17
  Q 271.56 191.53 274.76 180.25
  C 276.67 173.55 276.58 162.16 269.76 158.01
  C 263.97 154.48 254.82 156.18 252.42 163.21
  Z"
/>
<path fill="#000000" d="
  M 357.94 161.18
  Q 358.62 164.70 359.41 161.20
  Q 361.03 154.04 362.23 146.78
  A 3.16 3.16 0.0 0 1 365.79 144.16
  L 366.84 144.31
  A 2.38 2.38 0.0 0 1 368.85 147.09
  L 366.86 158.04
  Q 366.76 158.58 367.32 158.52
  Q 370.66 158.16 371.84 161.28
  Q 372.03 161.78 372.56 161.76
  C 380.60 161.56 373.75 175.88 372.59 179.39
  C 371.91 181.47 372.16 183.28 372.09 185.44
  Q 372.07 186.00 371.51 186.00
  L 355.00 186.00
  Q 354.50 186.00 354.50 185.50
  L 354.46 181.15
  A 1.01 0.99 21.5 0 0 354.13 180.41
  C 351.85 178.36 346.11 174.31 345.74 171.29
  C 345.26 167.45 348.15 166.41 351.41 166.23
  Q 351.90 166.21 351.83 165.72
  L 348.91 147.05
  A 2.40 2.39 -7.5 0 1 351.03 144.29
  L 351.95 144.19
  Q 355.15 143.84 355.59 147.03
  Q 356.58 154.11 357.94 161.18
  Z"
/>
<path fill="#000000" d="
  M 152.64 175.93
  C 152.98 189.77 167.48 195.35 175.89 183.92
  A 0.90 0.89 17.9 0 1 176.58 183.57
  L 181.83 183.51
  Q 183.81 183.49 183.41 185.42
  C 181.39 195.16 165.24 197.50 157.92 195.38
  C 143.30 191.13 141.14 167.83 148.89 157.07
  Q 154.19 149.72 164.24 149.54
  C 179.28 149.27 184.97 160.55 184.72 173.81
  A 1.73 1.72 0.5 0 1 182.99 175.50
  L 153.06 175.50
  Q 152.63 175.50 152.64 175.93
  Z
  M 152.89 169.52
  L 176.51 169.48
  A 0.30 0.30 0.0 0 0 176.81 169.18
  L 176.81 168.31
  A 12.57 11.92 89.9 0 0 164.87 155.76
  L 164.49 155.76
  A 12.57 11.92 89.9 0 0 152.59 168.35
  L 152.59 169.22
  A 0.30 0.30 0.0 0 0 152.89 169.52
  Z"
/>
<path fill="#000000" d="
  M 300.08 175.97
  C 300.45 189.77 314.91 195.24 323.36 184.06
  Q 323.78 183.51 324.47 183.52
  L 329.72 183.59
  A 1.45 1.45 0.0 0 1 331.03 185.61
  C 326.51 196.03 311.26 198.76 302.18 193.89
  C 293.35 189.15 291.24 178.03 292.30 168.71
  C 293.54 157.76 299.91 149.86 311.49 149.54
  C 326.65 149.13 332.24 160.32 332.21 173.58
  A 1.92 1.92 0.0 0 1 330.29 175.50
  L 300.54 175.50
  Q 300.07 175.50 300.08 175.97
  Z
  M 300.59 169.61
  L 323.67 169.53
  A 0.57 0.57 0.0 0 0 324.24 168.96
  L 324.24 168.17
  A 12.44 11.91 89.8 0 0 312.29 155.77
  L 311.89 155.77
  A 12.44 11.91 89.8 0 0 300.02 168.25
  L 300.02 169.04
  A 0.57 0.57 0.0 0 0 300.59 169.61
  Z"
/>
<path fill="#000000" d="
  M 398.44 176.05
  C 398.75 189.87 413.17 195.15 421.74 184.00
  Q 422.08 183.55 422.65 183.55
  L 427.67 183.52
  A 1.54 1.54 0.0 0 1 429.19 185.37
  C 427.75 192.21 418.39 195.59 412.40 196.14
  C 395.80 197.66 389.53 184.17 390.56 169.63
  C 391.36 158.47 397.70 150.00 409.73 149.52
  C 421.15 149.07 428.33 156.11 430.14 166.84
  Q 430.92 171.47 430.46 174.00
  C 430.11 175.86 428.30 175.53 426.83 175.51
  Q 412.88 175.40 398.93 175.55
  Q 398.43 175.55 398.44 176.05
  Z
  M 398.75 169.52
  L 422.23 169.48
  A 0.33 0.33 0.0 0 0 422.56 169.15
  L 422.56 168.15
  A 12.37 11.85 89.9 0 0 410.69 155.80
  L 410.25 155.80
  A 12.37 11.85 89.9 0 0 398.42 168.19
  L 398.42 169.19
  A 0.33 0.33 0.0 0 0 398.75 169.52
  Z"
/>
<path fill="#000000" d="
  M 489.49 156.31
  C 482.31 158.01 482.08 165.97 489.52 167.74
  C 493.49 168.69 503.54 170.85 507.30 173.87
  C 514.69 179.80 512.49 190.52 504.02 194.01
  Q 489.75 199.89 478.12 190.97
  Q 475.23 188.75 475.15 184.94
  A 0.78 0.77 -10.6 0 1 475.66 184.20
  Q 477.84 183.42 479.85 183.71
  Q 481.29 183.92 483.17 185.76
  Q 490.01 192.49 499.33 188.79
  C 506.31 186.02 504.37 178.94 497.75 177.27
  Q 491.61 175.72 485.51 173.99
  C 471.80 170.11 474.39 153.45 487.04 150.31
  C 495.20 148.29 506.02 150.24 509.93 158.73
  A 1.77 1.77 0.0 0 1 508.32 161.25
  L 504.30 161.25
  Q 503.79 161.25 503.48 160.84
  Q 498.52 154.18 489.49 156.31
  Z"
/>
<path fill="#000000" d="
  M 529.57 175.95
  C 529.63 189.88 544.34 195.14 552.81 183.99
  Q 553.13 183.56 553.66 183.56
  L 558.73 183.51
  A 1.61 1.60 8.4 0 1 560.28 185.59
  C 557.71 193.79 546.22 196.90 538.83 196.07
  Q 533.23 195.43 529.27 192.41
  C 519.90 185.27 519.39 167.26 525.08 157.99
  Q 529.85 150.23 539.98 149.56
  C 555.53 148.54 561.88 160.12 561.53 173.76
  A 1.78 1.78 0.0 0 1 559.75 175.50
  L 530.01 175.50
  Q 529.57 175.50 529.57 175.95
  Z
  M 530.02 169.62
  L 553.10 169.54
  A 0.57 0.57 0.0 0 0 553.67 168.97
  L 553.67 168.17
  A 12.45 11.91 89.8 0 0 541.72 155.76
  L 541.32 155.76
  A 12.45 11.91 89.8 0 0 529.45 168.25
  L 529.45 169.05
  A 0.57 0.57 0.0 0 0 530.02 169.62
  Z"
/>
<path fill="#000000" d="
  M 116.96 183.74
  L 126.22 152.60
  Q 126.92 150.23 129.40 150.24
  L 131.87 150.26
  Q 134.60 150.27 133.80 152.88
  L 121.23 193.90
  A 2.18 2.18 0.0 0 1 119.37 195.44
  C 116.61 195.74 113.33 196.02 112.30 192.65
  Q 107.69 177.64 102.67 162.75
  Q 102.38 161.88 102.10 162.76
  L 92.02 193.93
  A 1.37 1.35 84.0 0 1 91.42 194.68
  C 89.70 195.67 84.89 196.46 83.65 194.02
  Q 83.65 194.02 83.02 191.97
  Q 77.20 173.07 71.06 152.94
  Q 70.24 150.26 73.04 150.25
  L 75.33 150.25
  Q 77.90 150.24 78.64 152.70
  L 87.90 183.81
  Q 88.15 184.65 88.42 183.82
  Q 93.64 168.02 98.46 152.25
  C 99.28 149.60 103.54 149.87 105.47 150.82
  Q 105.93 151.05 106.09 151.54
  L 116.33 183.75
  Q 116.65 184.76 116.96 183.74
  Z"
/>
<path fill="#000000" d="
  M 447.64 155.37
  Q 453.94 148.60 463.46 150.55
  A 1.65 1.65 0.0 0 1 464.77 152.20
  L 464.70 156.00
  A 1.53 1.52 -88.0 0 1 463.11 157.49
  Q 456.21 157.20 454.23 157.94
  Q 447.60 160.39 447.56 166.75
  Q 447.48 180.10 447.54 193.41
  A 2.08 2.07 -0.3 0 1 445.47 195.49
  L 442.28 195.50
  Q 439.54 195.51 439.54 192.78
  L 439.54 152.02
  A 1.80 1.80 0.0 0 1 441.42 150.22
  L 446.44 150.44
  A 0.75 0.75 0.0 0 1 447.16 151.16
  L 447.31 155.25
  Q 447.33 155.70 447.64 155.37
  Z"
/>
<path fill="#feffff" d="
  M 152.89 169.52
  A 0.30 0.30 0.0 0 1 152.59 169.22
  L 152.59 168.35
  A 12.57 11.92 89.9 0 1 164.49 155.76
  L 164.87 155.76
  A 12.57 11.92 89.9 0 1 176.81 168.31
  L 176.81 169.18
  A 0.30 0.30 0.0 0 1 176.51 169.48
  L 152.89 169.52
  Z"
/>
<path fill="#feffff" d="
  M 300.59 169.61
  A 0.57 0.57 0.0 0 1 300.02 169.04
  L 300.02 168.25
  A 12.44 11.91 89.8 0 1 311.89 155.77
  L 312.29 155.77
  A 12.44 11.91 89.8 0 1 324.24 168.17
  L 324.24 168.96
  A 0.57 0.57 0.0 0 1 323.67 169.53
  L 300.59 169.61
  Z"
/>
<path fill="#feffff" d="
  M 398.75 169.52
  A 0.33 0.33 0.0 0 1 398.42 169.19
  L 398.42 168.19
  A 12.37 11.85 89.9 0 1 410.25 155.80
  L 410.69 155.80
  A 12.37 11.85 89.9 0 1 422.56 168.15
  L 422.56 169.15
  A 0.33 0.33 0.0 0 1 422.23 169.48
  L 398.75 169.52
  Z"
/>
<path fill="#feffff" d="
  M 530.02 169.62
  A 0.57 0.57 0.0 0 1 529.45 169.05
  L 529.45 168.25
  A 12.45 11.91 89.8 0 1 541.32 155.76
  L 541.72 155.76
  A 12.45 11.91 89.8 0 1 553.67 168.17
  L 553.67 168.97
  A 0.57 0.57 0.0 0 1 553.10 169.54
  L 530.02 169.62
  Z"
/>
<path fill="#feffff" d="
  M 224.58 183.05
  C 222.05 189.58 213.40 191.14 207.82 187.92
  C 199.85 183.31 199.51 165.12 205.88 159.26
  Q 209.50 155.93 215.27 156.30
  C 227.98 157.12 227.90 174.47 224.58 183.05
  Z"
/>
<path fill="#feffff" d="
  M 252.42 163.21
  C 254.82 156.18 263.97 154.48 269.76 158.01
  C 276.58 162.16 276.67 173.55 274.76 180.25
  Q 271.56 191.53 260.04 189.17
  C 249.62 187.04 249.84 170.79 252.42 163.21
  Z"
/>
<path fill="#000000" d="
  M 322.4700 235.0100
  A 11.22 9.30 90.0 0 1 313.1700 223.7900
  A 11.22 9.30 90.0 0 1 322.4700 212.5700
  A 11.22 9.30 90.0 0 1 331.7700 223.7900
  A 11.22 9.30 90.0 0 1 322.4700 235.0100
  Z
  M 322.4445 232.6000
  A 8.86 6.47 90.1 0 0 328.9300 223.7513
  A 8.86 6.47 90.1 0 0 322.4755 214.8800
  A 8.86 6.47 90.1 0 0 315.9900 223.7287
  A 8.86 6.47 90.1 0 0 322.4445 232.6000
  Z"
/>
<path fill="#000000" d="
  M 355.45 216.69
  C 341.69 207.09 340.18 240.32 355.78 230.74
  A 0.94 0.94 0.0 0 1 357.11 231.96
  C 355.58 235.06 350.79 235.29 348.02 234.41
  C 342.31 232.60 340.86 225.57 342.10 220.31
  C 343.74 213.40 351.15 210.10 356.74 215.06
  A 0.32 0.31 41.7 0 1 356.77 215.50
  L 355.85 216.63
  Q 355.68 216.84 355.45 216.69
  Z"
/>
<path fill="#000000" d="
  M 368.4923 235.0194
  A 11.24 9.29 90.6 0 1 359.3205 223.6827
  A 11.24 9.29 90.6 0 1 368.7277 212.5406
  A 11.24 9.29 90.6 0 1 377.8995 223.8773
  A 11.24 9.29 90.6 0 1 368.4923 235.0194
  Z
  M 368.5600 232.6000
  A 8.87 6.42 90.0 0 0 374.9800 223.7300
  A 8.87 6.42 90.0 0 0 368.5600 214.8600
  A 8.87 6.42 90.0 0 0 362.1400 223.7300
  A 8.87 6.42 90.0 0 0 368.5600 232.6000
  Z"
/>
<path fill="#000000" d="
  M 216.98 214.93
  A 1.71 1.71 0.0 0 1 218.69 213.22
  L 223.40 213.23
  A 9.63 9.28 -89.9 0 1 232.66 222.87
  L 232.66 225.03
  A 9.63 9.28 -89.9 0 1 223.36 234.65
  L 218.65 234.64
  A 1.71 1.71 0.0 0 1 216.94 232.93
  L 216.98 214.93
  Z
  M 220.10 215.98
  L 220.04 231.56
  A 0.77 0.77 0.0 0 0 220.81 232.34
  L 222.50 232.34
  A 7.52 7.36 -89.8 0 0 229.89 224.85
  L 229.89 222.77
  A 7.52 7.36 -89.8 0 0 222.56 215.22
  L 220.87 215.22
  A 0.77 0.77 0.0 0 0 220.10 215.98
  Z"
/>
<path fill="#000000" d="
  M 246.24 228.25
  L 239.52 228.23
  Q 239.04 228.23 238.89 228.68
  L 237.20 233.68
  A 1.46 1.45 16.2 0 1 235.48 234.62
  L 235.03 234.51
  A 0.76 0.75 -74.0 0 1 234.49 233.53
  L 241.01 214.51
  A 2.08 2.08 0.0 0 1 244.95 214.51
  L 251.34 233.30
  Q 251.77 234.56 250.44 234.56
  L 250.03 234.56
  Q 248.93 234.57 248.57 233.52
  L 246.92 228.74
  Q 246.75 228.25 246.24 228.25
  Z
  M 239.98 225.06
  A 0.54 0.54 0.0 0 0 240.50 225.75
  L 245.35 225.75
  A 0.54 0.54 0.0 0 0 245.87 225.05
  L 243.43 216.90
  A 0.54 0.54 0.0 0 0 242.39 216.90
  L 239.98 225.06
  Z"
/>
<path fill="#000000" d="
  M 264.76 225.94
  L 268.99 233.33
  Q 269.57 234.34 268.43 234.53
  L 268.02 234.60
  A 1.86 1.85 70.6 0 1 266.09 233.67
  L 261.80 225.99
  A 1.02 1.01 -14.5 0 0 260.91 225.47
  L 258.12 225.48
  A 0.65 0.65 0.0 0 0 257.48 226.13
  L 257.48 233.75
  A 0.86 0.85 -85.4 0 1 256.49 234.60
  L 256.04 234.53
  A 1.51 1.51 0.0 0 1 254.75 233.04
  L 254.76 214.53
  Q 254.76 213.51 255.77 213.40
  C 259.70 212.97 267.81 212.10 268.70 217.57
  Q 269.57 222.91 264.99 225.18
  Q 264.47 225.44 264.76 225.94
  Z
  M 257.50 216.35
  L 257.46 222.23
  A 1.05 1.05 0.0 0 0 258.50 223.29
  L 261.87 223.31
  A 4.38 3.79 0.4 0 0 266.28 219.55
  L 266.28 219.15
  A 4.38 3.79 0.4 0 0 261.93 215.33
  L 258.56 215.31
  A 1.05 1.05 0.0 0 0 257.50 216.35
  Z"
/>
<path fill="#000000" d="
  M 277.33 232.09
  L 285.57 232.08
  A 1.03 1.02 -0.9 0 1 286.60 233.07
  L 286.62 233.46
  Q 286.66 234.58 285.54 234.58
  L 274.49 234.55
  A 0.57 0.56 0.5 0 1 273.93 233.99
  L 273.96 213.91
  A 0.63 0.63 0.0 0 1 274.59 213.28
  L 285.65 213.29
  A 0.60 0.60 0.0 0 1 286.25 213.92
  L 286.23 214.35
  Q 286.18 215.25 285.27 215.25
  L 277.94 215.25
  Q 276.64 215.25 276.62 216.56
  L 276.57 220.72
  Q 276.55 222.27 278.10 222.24
  L 283.81 222.13
  A 0.89 0.88 -0.3 0 1 284.71 223.01
  L 284.71 223.31
  Q 284.71 224.53 283.49 224.53
  L 277.43 224.53
  A 0.81 0.80 0.4 0 0 276.62 225.32
  L 276.58 231.33
  Q 276.58 232.09 277.33 232.09
  Z"
/>
<path fill="#000000" d="
  M 304.83 215.72
  L 304.82 234.14
  A 0.42 0.42 0.0 0 1 304.42 234.56
  L 302.69 234.66
  A 0.42 0.42 0.0 0 1 302.25 234.25
  L 302.22 215.69
  A 0.42 0.42 0.0 0 0 301.80 215.27
  L 296.14 215.24
  A 0.42 0.42 0.0 0 1 295.73 214.80
  L 295.80 213.67
  A 0.42 0.42 0.0 0 1 296.21 213.28
  L 311.01 213.27
  A 0.42 0.42 0.0 0 1 311.43 213.69
  L 311.45 214.81
  A 0.42 0.42 0.0 0 1 311.03 215.23
  L 305.25 215.30
  A 0.42 0.42 0.0 0 0 304.83 215.72
  Z"
/>
<path fill="#000000" d="
  M 382.47 214.10
  A 0.85 0.85 0.0 0 1 383.32 213.25
  L 388.63 213.24
  A 9.16 9.14 89.9 0 1 397.79 222.39
  L 397.79 225.43
  A 9.16 9.14 89.9 0 1 388.67 234.60
  L 383.36 234.61
  A 0.85 0.85 0.0 0 1 382.51 233.76
  L 382.47 214.10
  Z
  M 385.29 216.08
  L 385.07 231.46
  A 0.89 0.89 0.0 0 0 385.95 232.36
  L 387.60 232.38
  A 7.52 7.44 -89.2 0 0 395.14 224.97
  L 395.17 222.85
  A 7.52 7.44 -89.2 0 0 387.84 215.23
  L 386.19 215.20
  A 0.89 0.89 0.0 0 0 385.29 216.08
  Z"
/>
<path fill="#000000" d="
  M 405.27 224.97
  L 405.25 231.66
  A 0.42 0.42 0.0 0 0 405.67 232.08
  L 414.86 232.08
  A 0.42 0.42 0.0 0 1 415.28 232.50
  L 415.30 234.15
  A 0.42 0.42 0.0 0 1 414.88 234.57
  L 403.01 234.54
  A 0.42 0.42 0.0 0 1 402.59 234.12
  L 402.60 213.68
  A 0.42 0.42 0.0 0 1 403.02 213.26
  L 414.57 213.30
  A 0.42 0.42 0.0 0 1 414.99 213.73
  L 414.98 214.82
  A 0.42 0.42 0.0 0 1 414.56 215.23
  L 405.69 215.29
  A 0.42 0.42 0.0 0 0 405.27 215.71
  L 405.25 221.71
  A 0.42 0.42 0.0 0 0 405.67 222.13
  L 413.01 222.20
  A 0.42 0.42 0.0 0 1 413.42 222.65
  L 413.30 224.14
  A 0.42 0.42 0.0 0 1 412.88 224.52
  L 405.69 224.55
  A 0.42 0.42 0.0 0 0 405.27 224.97
  Z"
/>
<ellipse fill="#feffff" cx="0.00" cy="0.00" transform="translate(322.46,223.74) rotate(90.1)" rx="8.86" ry="6.47"/>
<ellipse fill="#feffff" cx="0.00" cy="0.00" transform="translate(368.56,223.73) rotate(90.0)" rx="8.87" ry="6.42"/>
<path fill="#feffff" d="
  M 220.10 215.98
  A 0.77 0.77 0.0 0 1 220.87 215.22
  L 222.56 215.22
  A 7.52 7.36 -89.8 0 1 229.89 222.77
  L 229.89 224.85
  A 7.52 7.36 -89.8 0 1 222.50 232.34
  L 220.81 232.34
  A 0.77 0.77 0.0 0 1 220.04 231.56
  L 220.10 215.98
  Z"
/>
<path fill="#feffff" d="
  M 257.50 216.35
  A 1.05 1.05 0.0 0 1 258.56 215.31
  L 261.93 215.33
  A 4.38 3.79 0.4 0 1 266.28 219.15
  L 266.28 219.55
  A 4.38 3.79 0.4 0 1 261.87 223.31
  L 258.50 223.29
  A 1.05 1.05 0.0 0 1 257.46 222.23
  L 257.50 216.35
  Z"
/>
<path fill="#feffff" d="
  M 385.29 216.08
  A 0.89 0.89 0.0 0 1 386.19 215.20
  L 387.84 215.23
  A 7.52 7.44 -89.2 0 1 395.17 222.85
  L 395.14 224.97
  A 7.52 7.44 -89.2 0 1 387.60 232.38
  L 385.95 232.36
  A 0.89 0.89 0.0 0 1 385.07 231.46
  L 385.29 216.08
  Z"
/>
<path fill="#feffff" d="
  M 239.98 225.06
  L 242.39 216.90
  A 0.54 0.54 0.0 0 1 243.43 216.90
  L 245.87 225.05
  A 0.54 0.54 0.0 0 1 245.35 225.75
  L 240.50 225.75
  A 0.54 0.54 0.0 0 1 239.98 225.06
  Z"
/>
<rect fill="#000000" x="84.50" y="222.49" width="124.48" height="2.72" rx="0.33"/>
<rect fill="#000000" x="423.48" y="222.49" width="124.46" height="2.72" rx="0.26"/>
</svg>
